<?xml version="1.0" encoding="UTF-8"?>
<svg version="1.1" xmlns="http://www.w3.org/2000/svg" width="1748" height="1240">
<path d="M0 0 C576.84 0 1153.68 0 1748 0 C1748 409.2 1748 818.4 1748 1240 C1171.16 1240 594.32 1240 0 1240 C0 830.8 0 421.6 0 0 Z " fill="#FEFEFE" transform="translate(0,0)"/>
<path d="M0 0 C3.625 -0.1875 3.625 -0.1875 7 0 C7 0.99 7 1.98 7 3 C8.32 2.67 9.64 2.34 11 2 C11.5878125 3.1446875 11.5878125 3.1446875 12.1875 4.3125 C14.21937131 7.32527471 15.74287644 8.44898878 19 10 C19.886875 10.144375 20.77375 10.28875 21.6875 10.4375 C24 11 24 11 25.3125 13.0625 C25.539375 13.701875 25.76625 14.34125 26 15 C27.65 15 29.3 15 31 15 C31.495 16.98 31.495 16.98 32 19 C32.61875 19.103125 33.2375 19.20625 33.875 19.3125 C36 20 36 20 38 23 C40.58380177 23.25030977 40.58380177 23.25030977 43 23 C43 24.65 43 26.3 43 28 C43.845625 28.185625 44.69125 28.37125 45.5625 28.5625 C50.02133471 30.4271036 52.99746641 33.23350816 56 37 C56 37.66 56 38.32 56 39 C56.66 39 57.32 39 58 39 C58.00586624 39.61085953 58.01173248 40.22171906 58.01777649 40.85108948 C58.08186577 47.22695463 58.16632546 53.60232228 58.26245117 59.9777832 C58.29564115 62.35499499 58.32369141 64.73228446 58.34643555 67.10961914 C58.38008986 70.53305058 58.43241301 73.95577396 58.48828125 77.37890625 C58.49467117 78.43646622 58.5010611 79.49402618 58.50764465 80.58363342 C58.64504735 87.52874371 59.292064 92.7504768 63.875 98.25 C66.13826407 100.11386453 68.4604122 101.53973702 71 103 C72.34631825 103.98244845 73.68441297 104.97676564 75 106 C75.33 105.34 75.66 104.68 76 104 C76 105.32 76 106.64 76 108 C77.98 108.66 79.96 109.32 82 110 C82 110.66 82 111.32 82 112 C82.61875 112.268125 83.2375 112.53625 83.875 112.8125 C86 114 86 114 88 117 C87.625 120.6875 87.625 120.6875 87 124 C86.29875 124.2475 85.5975 124.495 84.875 124.75 C81.57405368 126.18519405 78.84980747 127.79787605 76 130 C75.04768403 132.12119128 75.04768403 132.12119128 75 134 C74.21625 133.938125 73.4325 133.87625 72.625 133.8125 C71.75875 133.874375 70.8925 133.93625 70 134 C69.34 134.99 68.68 135.98 68 137 C67.195625 137.474375 66.39125 137.94875 65.5625 138.4375 C62.38284948 140.37631129 60.53386429 142.26072067 59.43001783 145.85694796 C58.98375972 148.08093561 58.87283731 150.08424798 58.86971474 152.35133266 C58.86427822 153.65447687 58.86427822 153.65447687 58.85873187 154.98394722 C58.86033424 156.40878704 58.86033424 156.40878704 58.86196899 157.8624115 C58.85773707 159.38132778 58.85773707 159.38132778 58.85341966 160.93092924 C58.84506686 164.33408748 58.84373484 167.73721321 58.84228516 171.14038086 C58.83761753 173.5761779 58.83247406 176.01197406 58.82688904 178.44776917 C58.81560383 183.69807208 58.80712136 188.94837195 58.80076981 194.19868279 C58.79044112 202.49661754 58.76987751 210.79451229 58.74765015 219.09242249 C58.74017067 221.93152891 58.73275693 224.77063551 58.72536278 227.60974216 C58.72351221 228.31924195 58.72166165 229.02874174 58.719755 229.75974153 C58.69883148 237.83453409 58.6800008 245.90933105 58.66210938 253.98413086 C58.66047119 254.72222976 58.65883301 255.46032867 58.65714519 256.22079421 C58.63084992 268.18669597 58.61221141 280.15260081 58.59551747 292.11851924 C58.57810209 304.40307117 58.54926417 316.68756248 58.5106281 328.97206599 C58.48722183 336.54989844 58.47323298 344.12763207 58.47130047 351.70550097 C58.46894351 357.51041977 58.45108773 363.31520986 58.42743111 369.12007713 C58.42021865 371.50294247 58.41814651 373.88582961 58.42153358 376.26870346 C58.42541306 379.51621914 58.41102265 382.7631545 58.39199829 386.01060486 C58.39752799 386.95826735 58.40305768 387.90592984 58.40875494 388.88230938 C58.35965395 393.72234613 58.21029692 397.10178286 55 401 C52.8125 402.3125 52.8125 402.3125 51 403 C51 404.32 51 405.64 51 407 C48.69 407.33 46.38 407.66 44 408 C44 408.66 44 409.32 44 410 C43.38125 410.268125 42.7625 410.53625 42.125 410.8125 C39.7004767 411.95556848 39.7004767 411.95556848 38 415 C34.875 415.6875 34.875 415.6875 32 416 C32 416.66 32 417.32 32 418 C31.360625 418.2475 30.72125 418.495 30.0625 418.75 C27.81258459 419.81562433 27.81258459 419.81562433 27.25 422.125 C27.1675 422.74375 27.085 423.3625 27 424 C26.29875 423.9175 25.5975 423.835 24.875 423.75 C21.07558235 424.08038414 19.06567497 425.81996447 16 428 C15.34 428 14.68 428 14 428 C14 429.32 14 430.64 14 432 C13.195625 432.12375 12.39125 432.2475 11.5625 432.375 C10.716875 432.58125 9.87125 432.7875 9 433 C8.67 433.66 8.34 434.32 8 435 C1.25 434.25 1.25 434.25 -1 432 C-1.25135702 429.92351598 -1.25135702 429.92351598 -1.25333309 427.30130291 C-1.25894849 426.30415317 -1.26456388 425.30700343 -1.27034944 424.27963704 C-1.26636835 423.17606211 -1.26238726 422.07248718 -1.25828552 420.93547058 C-1.26196123 419.76939359 -1.26563693 418.60331659 -1.26942402 417.40190393 C-1.27770518 414.15517998 -1.27702233 410.90859614 -1.27269709 407.66186893 C-1.27022763 404.16414851 -1.27928049 400.66645686 -1.28707886 397.16874695 C-1.29914118 391.10427043 -1.3042327 385.03982021 -1.30496025 378.97533226 C-1.30628398 370.20157798 -1.32137903 361.42788773 -1.34045542 352.65415601 C-1.37132103 338.41324408 -1.39547502 324.17233053 -1.41333008 309.93139648 C-1.41440276 309.07852321 -1.41547544 308.22564995 -1.41658062 307.34693203 C-1.42839887 297.83311643 -1.43860383 288.31930017 -1.44702148 278.80548096 C-1.45009527 275.35689289 -1.45318408 271.90830483 -1.45629883 268.4597168 C-1.45706417 267.60878852 -1.45782951 266.75786025 -1.45861804 265.88114627 C-1.47169462 251.69824636 -1.49632833 237.51539267 -1.53004223 223.33252698 C-1.5503484 214.58018604 -1.5606194 205.82794394 -1.55805302 197.07557926 C-1.55701879 191.07832443 -1.56664138 185.08114776 -1.58469205 179.0839202 C-1.59474804 175.62205188 -1.59985354 172.16035646 -1.59192467 168.6984787 C-1.58581656 164.94730099 -1.59795554 161.19661514 -1.61473083 157.44548035 C-1.60851902 156.34859758 -1.6023072 155.25171481 -1.59590715 154.12159318 C-1.63882965 148.87591639 -1.66959363 145.30913092 -5 141 C-5 140.34 -5 139.68 -5 139 C-5.99 139 -6.98 139 -8 139 C-8 138.01 -8 137.02 -8 136 C-10.31 136 -12.62 136 -15 136 C-15.495 134.02 -15.495 134.02 -16 132 C-16.78375 131.938125 -17.5675 131.87625 -18.375 131.8125 C-19.24125 131.544375 -20.1075 131.27625 -21 131 C-22.3125 128.4375 -22.3125 128.4375 -23 126 C-24.65 126 -26.3 126 -28 126 C-28.66 124.35 -29.32 122.7 -30 121 C-30.99 121 -31.98 121 -33 121 C-33 119.35 -33 117.7 -33 116 C-32.01 116 -31.02 116 -30 116 C-29.67 114.68 -29.34 113.36 -29 112 C-27.68 112 -26.36 112 -25 112 C-24.773125 111.38125 -24.54625 110.7625 -24.3125 110.125 C-22.61583557 107.3780195 -20.94748289 107.13364727 -18 106 C-17.67 105.01 -17.34 104.02 -17 103 C-15.67203709 102.64587656 -14.33783393 102.31478446 -13 102 C-11.97980427 101.0206121 -10.97850195 100.02104551 -10 99 C-8.515 98.505 -8.515 98.505 -7 98 C-5.29144978 94.99992729 -5.29144978 94.99992729 -4 92 C-3.34 92 -2.68 92 -2 92 C-2.16389725 91.01565979 -2.32779449 90.03131958 -2.49665833 89.01715088 C-3.07870637 84.91758452 -3.10846307 80.8592041 -3.0534668 76.72558594 C-3.04707184 75.92958984 -3.04067688 75.13359375 -3.03408813 74.31347656 C-3.01145435 71.70368647 -2.98080002 69.09407112 -2.94921875 66.484375 C-2.92997121 64.66310827 -2.91091591 62.84183951 -2.89204407 61.02056885 C-2.85117683 57.2145048 -2.80596324 53.40852071 -2.75805664 49.60253906 C-2.69725336 44.72113739 -2.6504406 39.83971098 -2.60722637 34.95812607 C-2.57191818 31.20232233 -2.52767865 27.44666312 -2.48087502 23.69098663 C-2.45981621 21.89045842 -2.44191789 20.08989039 -2.4272213 18.28929901 C-2.40570067 15.77826132 -2.37179753 13.26768538 -2.3347168 10.75683594 C-2.33098557 10.01185852 -2.32725433 9.2668811 -2.32341003 8.49932861 C-2.25513419 4.79563659 -2.10907451 3.16361176 0 0 Z " fill="#FE0F36" transform="translate(363,365)"/>
<path d="M0 0 C4.455 0.99 4.455 0.99 9 2 C9 31.7 9 61.4 9 92 C9.66 92 10.32 92 11 92 C11 92.99 11 93.98 11 95 C11.66 95 12.32 95 13 95 C15.125 96.8125 15.125 96.8125 17 99 C17 99.99 17 100.98 17 102 C19.31 102.33 21.62 102.66 24 103 C24 104.32 24 105.64 24 107 C24.66 107.226875 25.32 107.45375 26 107.6875 C36.04 112.08 36.04 112.08 38 116 C39.485 116.495 39.485 116.495 41 117 C41 118.65 41 120.3 41 122 C39.02 122.33 37.04 122.66 35 123 C35 124.65 35 126.3 35 128 C34.34 128 33.68 128 33 128 C33 127.34 33 126.68 33 126 C31.35 126.66 29.7 127.32 28 128 C28 128.66 28 129.32 28 130 C27.071875 130.37125 27.071875 130.37125 26.125 130.75 C23.64931313 132.20628639 23.04874998 133.37812506 22 136 C20.02 136 18.04 136 16 136 C16 136.99 16 137.98 16 139 C15.01 139 14.02 139 13 139 C13 139.99 13 140.98 13 142 C12.34 142 11.68 142 11 142 C11 142.99 11 143.98 11 145 C10.34 145 9.68 145 9 145 C9.00037972 145.60863982 9.00075944 146.21727964 9.00115067 146.84436309 C9.02350916 182.88502829 9.04067664 218.92569247 9.05106533 254.96636318 C9.0523161 259.28991271 9.05361041 263.61346222 9.05493164 267.93701172 C9.05519395 268.79778415 9.05545626 269.65855659 9.05572652 270.54541303 C9.06008261 284.49882817 9.06796983 298.45223921 9.0771528 312.40565191 C9.08649102 326.71387833 9.09205597 341.02210259 9.09408849 355.33033192 C9.09546337 364.16544435 9.09981206 373.00054518 9.10791647 381.83565404 C9.113186 387.8870697 9.11480382 393.93847933 9.11350138 399.98989712 C9.11285832 403.48576284 9.11387186 406.98160825 9.11920547 410.4774704 C9.12414095 414.26029587 9.1229988 418.0430707 9.12025452 421.82589722 C9.12316736 422.94066464 9.1260802 424.05543207 9.12908131 425.20398033 C9.12709026 426.21118035 9.12509921 427.21838037 9.12304783 428.25610161 C9.12342755 429.13021781 9.12380727 430.00433401 9.1241985 430.90493858 C9 433 9 433 8 435 C4.06225823 435.36630156 2.43460229 435.30233203 -0.875 433 C-1.57625 432.34 -2.2775 431.68 -3 431 C-3 431.66 -3 432.32 -3 433 C-3.66 433 -4.32 433 -5 433 C-5.226875 432.236875 -5.45375 431.47375 -5.6875 430.6875 C-7.29893055 427.38790411 -8.75807913 426.62096043 -12 425 C-12.721875 424.608125 -13.44375 424.21625 -14.1875 423.8125 C-15.97312293 422.86364803 -15.97312293 422.86364803 -18 423 C-18.23847656 422.39285156 -18.47695312 421.78570313 -18.72265625 421.16015625 C-20.29331483 418.50396606 -21.69723567 417.80088275 -24.4375 416.4375 C-27.50301057 414.89716932 -29.59576366 413.41763042 -32 411 C-32.99 410.67 -33.98 410.34 -35 410 C-35 409.34 -35 408.68 -35 408 C-36.5778125 407.6596875 -36.5778125 407.6596875 -38.1875 407.3125 C-43.21837527 405.85913603 -45.84372226 402.81881691 -48.61654568 398.45718479 C-50.46147798 393.84678906 -50.41777833 389.85540203 -50.38526917 384.93504333 C-50.39312271 383.41968911 -50.39312271 383.41968911 -50.40113491 381.87372166 C-50.41509764 378.49048115 -50.40779449 375.10762204 -50.40063477 371.72436523 C-50.40637703 369.29812277 -50.41345969 366.87188317 -50.42178345 364.44564819 C-50.43689997 359.22209891 -50.44303575 353.99862045 -50.44125557 348.77505302 C-50.43887009 341.21725407 -50.45487277 333.65957884 -50.47570812 326.10181225 C-50.50922057 313.83196264 -50.53089138 301.56212411 -50.54370117 289.29223633 C-50.54447066 288.55825904 -50.54524015 287.82428175 -50.54603296 287.06806273 C-50.54913534 284.09397921 -50.55221816 281.11989566 -50.555273 278.14581209 C-50.5638056 269.95633619 -50.57470626 261.76686413 -50.58666992 253.57739258 C-50.58773794 252.84400803 -50.58880596 252.11062348 -50.58990634 251.35501515 C-50.60799526 239.12917952 -50.63398418 226.90337028 -50.66480106 214.67756039 C-50.68335659 207.13799072 -50.69427091 199.59848033 -50.69532298 192.05888749 C-50.69655629 186.28487907 -50.70761606 180.51092312 -50.72226334 174.73693466 C-50.72655119 172.36696173 -50.72739754 169.99697976 -50.72458839 167.62700462 C-50.72119866 164.39723475 -50.729945 161.16771794 -50.74171448 157.93797302 C-50.73773338 156.99556572 -50.73375229 156.05315842 -50.72965056 155.08219332 C-50.77623127 147.89314548 -52.0190838 143.43372676 -57 138 C-57.99 137.67 -58.98 137.34 -60 137 C-60.474375 136.484375 -60.94875 135.96875 -61.4375 135.4375 C-63.13676051 133.54862898 -63.13676051 133.54862898 -67 134 C-67.268125 133.360625 -67.53625 132.72125 -67.8125 132.0625 C-68.88667752 129.66868314 -68.88667752 129.66868314 -72 129 C-72.45375 128.505 -72.9075 128.01 -73.375 127.5 C-74.95247003 125.76060239 -74.95247003 125.76060239 -77.5625 125.625 C-78.366875 125.41875 -79.17125 125.2125 -80 125 C-81.86007925 121.72271751 -82 119.8340246 -82 116 C-79.1600659 112.4122726 -75.97279194 110.24761977 -71.5625 109.125 C-70.716875 109.08375 -69.87125 109.0425 -69 109 C-69 107.35 -69 105.7 -69 104 C-67.68 104 -66.36 104 -65 104 C-63.515 103.505 -63.515 103.505 -62 103 C-62 102.34 -62 101.68 -62 101 C-61.2575 100.566875 -60.515 100.13375 -59.75 99.6875 C-56.27957954 97.55792381 -53.67960844 95.108342 -52.40345764 91.14935303 C-51.95284859 88.74880876 -51.83874408 86.49038596 -51.79467773 84.04785156 C-51.77473251 83.06713684 -51.75478729 82.08642212 -51.73423767 81.07598877 C-51.71752518 80.02481873 -51.70081268 78.97364868 -51.68359375 77.890625 C-51.66281265 76.80867859 -51.64203156 75.72673218 -51.62062073 74.61199951 C-51.55527069 71.15806387 -51.49630771 67.70405263 -51.4375 64.25 C-51.39430096 61.90754429 -51.35068622 59.5650962 -51.30664062 57.22265625 C-51.19960417 51.4818506 -51.09781074 45.74096985 -51 40 C-50.34 40 -49.68 40 -49 40 C-48.9175 39.2575 -48.835 38.515 -48.75 37.75 C-47.85190201 34.45697405 -46.61583926 33.14023212 -44 31 C-43.34 31 -42.68 31 -42 31 C-42 30.34 -42 29.68 -42 29 C-40.02 28.67 -38.04 28.34 -36 28 C-36 27.01 -36 26.02 -36 25 C-34.35 25 -32.7 25 -31 25 C-31 24.34 -31 23.68 -31 23 C-30.34 23 -29.68 23 -29 23 C-29 22.34 -29 21.68 -29 21 C-27.35 20.67 -25.7 20.34 -24 20 C-24 18.35 -24 16.7 -24 15 C-23.34 15 -22.68 15 -22 15 C-22 15.66 -22 16.32 -22 17 C-21.2575 16.195625 -20.515 15.39125 -19.75 14.5625 C-17.24695171 12.23011409 -16.2819045 11.36465606 -13 11 C-12.67 9.68 -12.34 8.36 -12 7 C-10.35 7.33 -8.7 7.66 -7 8 C-7 7.34 -7 6.68 -7 6 C-4.4385343 3.70351351 -3.52032428 3 0 3 C0 2.01 0 1.02 0 0 Z " fill="#FE0F36" transform="translate(221,365)"/>
<path d="M0 0 C0.8981543 0.56074219 0.8981543 0.56074219 1.81445312 1.1328125 C7.37310796 4.68840333 11.81420868 8.16589644 13.9375 14.625 C14.19049966 17.17437065 14.19049966 17.17437065 14.19476891 19.93713188 C14.2012178 20.9947557 14.20766669 22.05237951 14.214311 23.14205253 C14.2112138 24.29777987 14.2081166 25.45350721 14.20492554 26.64425659 C14.20945665 27.87682257 14.21398776 29.10938854 14.21865618 30.37930501 C14.22912932 33.79783897 14.23062555 37.2161626 14.22826743 40.63469768 C14.22785931 44.3225917 14.23889791 48.01045434 14.24838257 51.69833374 C14.26499416 58.92238497 14.27049217 66.14640356 14.27160732 73.3704723 C14.27255766 79.24224713 14.27666724 85.1140112 14.28300858 90.98578262 C14.30062093 107.63272128 14.30984738 124.27963416 14.30834763 140.9265822 C14.30826772 141.82398879 14.3081878 142.72139537 14.30810547 143.64599609 C14.30802371 144.54449807 14.30794195 145.44300005 14.30785771 146.36872937 C14.30704467 160.93281107 14.32618687 175.49678939 14.3543822 190.06084119 C14.38310343 205.01449476 14.39692294 219.96809789 14.39519465 234.92177975 C14.39453051 243.31741332 14.40003315 251.71293848 14.42155075 260.10854721 C14.43975248 267.25619071 14.44411819 274.40367666 14.4305319 281.55133329 C14.42399726 285.19782537 14.42390259 288.84401511 14.4412384 292.49047852 C14.45984248 296.44438476 14.44742753 300.39784844 14.43197632 304.35177612 C14.44226344 305.50304202 14.45255057 306.65430792 14.46314943 307.84046066 C14.40693796 314.3360479 13.8139589 318.34385826 9.9375 323.625 C5.80005435 327.68596792 -2.00330724 334.625 -8.0625 334.625 C-8.0625 335.285 -8.0625 335.945 -8.0625 336.625 C-14.96313962 338.29788233 -20.84989132 338.24702282 -27.0625 334.625 C-42.05632716 324.64351852 -42.05632716 324.64351852 -44.0625 318.625 C-44.7225 318.295 -45.3825 317.965 -46.0625 317.625 C-46.0625 216.975 -46.0625 116.325 -46.0625 12.625 C-45.4025 12.625 -44.7425 12.625 -44.0625 12.625 C-43.97226562 11.88507812 -43.88203125 11.14515625 -43.7890625 10.3828125 C-42.51938359 5.56349364 -38.83523701 2.70081934 -35.0625 -0.375 C-32.76494041 -1.62121082 -30.52363678 -2.4581059 -28.0625 -3.375 C-27.04381338 -4.35595748 -26.03898017 -5.35202078 -25.0625 -6.375 C-15.47928034 -10.27927468 -7.81020585 -5.0093628 0 0 Z " fill="#FC0F35" transform="translate(313.0625,507.375)"/>
<path d="M0 0 C1.12197533 -0.00929787 1.12197533 -0.00929787 2.26661682 -0.01878357 C3.8389456 -0.0258454 5.41134973 -0.02277162 6.98364258 -0.01000977 C9.37007255 0.00385493 11.7525722 -0.03025847 14.13867188 -0.06835938 C28.34321575 -0.14782666 28.34321575 -0.14782666 33.44775391 4.00024414 C33.94065918 4.51707764 34.43356445 5.03391113 34.94140625 5.56640625 C35.45493652 6.08904053 35.9684668 6.6116748 36.49755859 7.15014648 C41.01505031 12.89448561 40.67097298 19.52034511 40.53833008 26.54785156 C40.50395973 28.56327034 40.51771973 30.57430199 40.53710938 32.58984375 C40.46876484 41.72067329 39.6753451 47.66274291 33.19140625 54.44140625 C25.86276562 59.23320974 17.91776654 58.87659342 9.44140625 58.81640625 C7.80751953 58.82800781 7.80751953 58.82800781 6.140625 58.83984375 C-9.73413572 58.80145255 -9.73413572 58.80145255 -15.75244141 53.14746094 C-21.57980424 46.09362885 -21.62217304 38.13791801 -21.43359375 29.37890625 C-21.43230469 28.22970703 -21.43101562 27.08050781 -21.4296875 25.89648438 C-21.34306147 17.58519797 -20.42467705 11.23775306 -15.05859375 4.56640625 C-9.99899253 1.11219113 -6.16484961 -0.04341102 0 0 Z " fill="#040E5A" transform="translate(1020.05859375,487.43359375)"/>
<path d="M0 0 C1.1538343 -0.01285538 1.1538343 -0.01285538 2.33097839 -0.02597046 C3.9521391 -0.03740841 5.57340241 -0.03849336 7.19458008 -0.02978516 C9.65172193 -0.0234792 12.10400247 -0.07036211 14.56054688 -0.12109375 C29.15614389 -0.24405018 29.15614389 -0.24405018 35.22680664 4.87744141 C41.86420997 11.90387557 41.41475933 18.23184165 41.23046875 27.6015625 C41.22917969 28.84679687 41.22789063 30.09203125 41.2265625 31.375 C41.13570325 40.84455308 40.8596752 47.59735605 33.85546875 54.6015625 C26.3841055 59.11551113 19.02062228 58.78415929 10.54296875 58.7890625 C8.8887793 58.80743164 8.8887793 58.80743164 7.20117188 58.82617188 C-8.84665162 58.85491425 -8.84665162 58.85491425 -14.83837891 53.2512207 C-20.48785281 46.11598796 -20.71748291 37.61872642 -20.51953125 28.9140625 C-20.51824219 27.82544922 -20.51695313 26.73683594 -20.515625 25.61523438 C-20.42650099 17.47029008 -20.09252425 10.71477752 -14.14453125 4.6015625 C-9.49401184 0.87821316 -5.82260136 -0.01457392 0 0 Z " fill="#040E5A" transform="translate(1450.14453125,487.3984375)"/>
<path d="M0 0 C0.78199768 -0.00807175 1.56399536 -0.01614349 2.36968994 -0.02445984 C4.02736189 -0.03830095 5.68506235 -0.04902299 7.34277344 -0.05688477 C9.86709379 -0.07405866 12.39009086 -0.1179374 14.9140625 -0.16210938 C16.52603205 -0.17224005 18.13801273 -0.18075498 19.75 -0.1875 C20.50021423 -0.20500809 21.25042847 -0.22251617 22.02337646 -0.24055481 C28.70148024 -0.21318553 32.06012329 2.39420019 36.890625 6.67578125 C42.36961538 12.91574252 41.5414618 20.03504516 41.578125 27.92578125 C41.61099609 29.15490234 41.64386719 30.38402344 41.67773438 31.65039062 C41.72427304 39.5831181 40.76258038 45.65061875 36.140625 52.23828125 C28.76975685 58.79016405 19.47479392 58.55759439 10.140625 58.48828125 C8.57828125 58.49988281 8.57828125 58.49988281 6.984375 58.51171875 C-8.09195766 58.4736472 -8.09195766 58.4736472 -13.671875 53.61328125 C-14.48591797 52.94425781 -14.48591797 52.94425781 -15.31640625 52.26171875 C-20.71955896 45.17606533 -20.31779751 37.25664653 -20.234375 28.73828125 C-20.24597656 27.55363281 -20.25757813 26.36898437 -20.26953125 25.1484375 C-20.24473679 17.73489284 -20.13014841 11.07725138 -15.10546875 5.1796875 C-14.50863281 4.72464844 -13.91179687 4.26960938 -13.296875 3.80078125 C-12.69746094 3.32769531 -12.09804687 2.85460937 -11.48046875 2.3671875 C-7.79041413 -0.20251318 -4.35296743 0.04240354 0 0 Z " fill="#05105B" transform="translate(1255.859375,487.76171875)"/>
<path d="M0 0 C1.06250221 -0.00574036 1.06250221 -0.00574036 2.14646912 -0.01159668 C3.63306106 -0.01430045 5.11970184 -0.00704742 6.60620117 0.00976562 C8.86941277 0.03123405 11.1294627 0.00989978 13.39257812 -0.015625 C14.84505902 -0.01298207 16.29753796 -0.0078578 17.75 0 C19.05654541 0.00451172 20.36309082 0.00902344 21.70922852 0.01367188 C27.00134747 0.774663 30.81107444 3.44238799 34.12109375 7.59375 C38.40402355 13.34511288 37.56536682 19.69824306 37.60375977 26.56274414 C37.6152446 27.9912306 37.63564111 29.41967533 37.6652832 30.84790039 C37.97168647 45.62201555 37.97168647 45.62201555 33.30859375 52.53125 C26.56202904 59.10482587 19.5378043 58.93208421 10.5534668 58.95678711 C8.51162791 58.96865967 6.47284065 59.01786511 4.43164062 59.06835938 C-3.20908235 59.10986454 -8.89953902 58.84759287 -14.69140625 53.53125 C-20.76711085 46.9881835 -19.97470194 40.08487965 -20.04150391 31.64526367 C-20.0580103 30.11971728 -20.08523031 28.59424654 -20.12353516 27.0690918 C-20.50232228 11.88631574 -20.50232228 11.88631574 -16.45556641 6.08081055 C-11.18263563 1.44930049 -6.98533541 0.02410072 0 0 Z " fill="#FBFBFC" transform="translate(849.69140625,563.46875)"/>
<path d="M0 0 C2.18853879 0.00851004 4.37446255 -0.02028773 6.56274414 -0.05200195 C19.61124202 -0.11802591 19.61124202 -0.11802591 25.26000977 4.44604492 C29.73827595 9.39570755 30.43268153 12.53846377 30.49829102 19.05151367 C30.50636276 19.80894363 30.51443451 20.5663736 30.52275085 21.34675598 C30.53659278 22.95315259 30.54731446 24.55957862 30.55517578 26.16601562 C30.5723229 28.60694389 30.61619707 31.04649399 30.66040039 33.48706055 C30.67053354 35.05020166 30.6790477 36.61335426 30.68579102 38.17651367 C30.7032991 38.89969284 30.72080719 39.62287201 30.73884583 40.3679657 C30.71590229 45.80858448 29.36103429 48.96010361 26.26000977 53.44604492 C19.2081297 58.91484987 13.29330596 58.69122397 4.65576172 58.74121094 C3.27577429 58.75269331 1.89582996 58.77308595 0.51611328 58.80273438 C-15.60925114 59.14895487 -15.60925114 59.14895487 -22.30053711 53.015625 C-27.24151032 46.90937681 -26.52756835 38.77806896 -26.44677734 31.32836914 C-26.42752338 28.95013924 -26.46702297 26.57774536 -26.51147461 24.19995117 C-26.59048396 10.56089489 -26.59048396 10.56089489 -21.61425781 4.8737793 C-14.8188184 -0.30268673 -8.15203901 -0.04839902 0 0 Z " fill="#FDFDFD" transform="translate(988.739990234375,563.553955078125)"/>
<path d="M0 0 C11.4159375 -0.12375 11.4159375 -0.12375 23.0625 -0.25 C25.45250244 -0.28641602 27.84250488 -0.32283203 30.30493164 -0.36035156 C32.21499739 -0.37204213 34.12507316 -0.38223309 36.03515625 -0.390625 C37.01415894 -0.41108887 37.99316162 -0.43155273 39.00183105 -0.45263672 C45.24006247 -0.45579972 48.9009191 0.33955653 54 4 C58.06146517 8.44274557 57.44547492 13.80719285 57.375 19.5 C57.38660156 20.43714844 57.39820313 21.37429688 57.41015625 22.33984375 C57.38375158 28.5449421 56.50312478 31.97539089 52.5 36.8125 C51 38 51 38 48 38 C51.12100351 43.72183978 54.69839995 49.0558846 58.390625 54.42578125 C60 57 60 57 60 59 C55.85029753 59.61325652 52.1291926 59.83412799 48 59 C44.25004021 55.65987188 42.02230275 51.20354271 39.92431641 46.68139648 C38.49397226 44.00262162 37.23609318 42.06617157 35 40 C30.69601744 38.75951029 26.57844279 38.82943113 22.125 38.9375 C20.9596875 38.93041016 19.794375 38.92332031 18.59375 38.91601562 C15.72905394 38.90427507 12.86422612 38.94680115 10 39 C10 45.6 10 52.2 10 59 C6.7 59 3.4 59 0 59 C0 39.53 0 20.06 0 0 Z " fill="#08125D" transform="translate(628,487)"/>
<path d="M0 0 C7.46625 -0.103125 14.9325 -0.20625 22.625 -0.3125 C24.97189941 -0.35802002 27.31879883 -0.40354004 29.73681641 -0.45043945 C31.60838392 -0.46504997 33.47996737 -0.4777893 35.3515625 -0.48828125 C36.31408936 -0.51386108 37.27661621 -0.53944092 38.26831055 -0.5657959 C42.76488342 -0.56870743 45.99002419 -0.51712576 49.60302734 2.34301758 C53.66728971 6.84814768 53.21328334 11.0709328 53.25 16.8125 C53.270625 17.60720703 53.29125 18.40191406 53.3125 19.22070312 C53.35146525 25.1093263 52.43780936 29.47812825 48.1875 33.875 C45.34798172 35.33532369 43.14704859 35.21457149 40 35 C43.39695088 41.46727186 47.27381568 47.48687186 51.42578125 53.49609375 C53 56 53 56 53 58 C51.68 58 50.36 58 49 58 C47.76855469 55.99633789 47.76855469 55.99633789 46.671875 53.22265625 C43.65620411 46.66466702 40.79511943 40.52612249 35 36 C24.70570691 32.9000291 13.56837993 34.09921372 3 35 C3 42.59 3 50.18 3 58 C2.01 58 1.02 58 0 58 C0 38.86 0 19.72 0 0 Z " fill="#FCFDFD" transform="translate(763,564)"/>
<path d="M0 0 C0.67289063 -0.03287109 1.34578125 -0.06574219 2.0390625 -0.09960938 C5.29881924 -0.13490202 7.14786562 -0.01491333 9.55224609 2.26489258 C12.53356752 6.82817549 14.39822354 11.69844138 16.390625 16.7578125 C17.04801666 18.40123123 17.04801666 18.40123123 17.71868896 20.07785034 C18.64047391 22.3876621 19.55804933 24.69915766 20.47167969 27.01220703 C21.87424875 30.5605994 23.29151519 34.10285156 24.7109375 37.64453125 C25.6050406 39.89027726 26.49829915 42.13635973 27.390625 44.3828125 C27.81555237 45.44533234 28.24047974 46.50785217 28.67828369 47.60256958 C29.2595401 49.0795784 29.2595401 49.0795784 29.85253906 50.58642578 C30.19577209 51.45292755 30.53900513 52.31942932 30.89263916 53.21218872 C31.625 55.4375 31.625 55.4375 31.625 58.4375 C27.995 58.4375 24.365 58.4375 20.625 58.4375 C18.975 54.1475 17.325 49.8575 15.625 45.4375 C5.395 45.4375 -4.835 45.4375 -15.375 45.4375 C-17.025 49.7275 -18.675 54.0175 -20.375 58.4375 C-24.005 58.4375 -27.635 58.4375 -31.375 58.4375 C-30.76184221 53.67957858 -29.39398851 49.47857294 -27.609375 45.0546875 C-27.33409973 44.35916779 -27.05882446 43.66364807 -26.77520752 42.947052 C-25.89733376 40.73329014 -25.01120564 38.52293765 -24.125 36.3125 C-23.54505167 34.85176934 -22.96562017 33.39083338 -22.38671875 31.9296875 C-20.73123121 27.75948925 -19.05665486 23.59720425 -17.375 19.4375 C-16.90255859 18.26477539 -16.43011719 17.09205078 -15.94335938 15.88378906 C-15.51345703 14.8315918 -15.08355469 13.77939453 -14.640625 12.6953125 C-14.27227539 11.79184082 -13.90392578 10.88836914 -13.52441406 9.95751953 C-10.20393599 2.67757588 -8.0766486 0.06883507 0 0 Z " fill="#07115C" transform="translate(762.375,487.5625)"/>
<path d="M0 0 C3.63 0 7.26 0 11 0 C11.11294393 7.24961037 11.20468121 14.49874044 11.25906086 21.74904346 C11.28516016 25.11566146 11.32056069 28.48164665 11.37719727 31.84790039 C11.43769753 35.71778232 11.46617712 39.58676353 11.48828125 43.45703125 C11.51408768 44.66647903 11.5398941 45.87592682 11.56648254 47.12202454 C11.5668602 48.24296005 11.56723785 49.36389557 11.56762695 50.51879883 C11.58428154 52.00105705 11.58428154 52.00105705 11.60127258 53.51325989 C11 56 11 56 8.62226868 57.87660217 C6 59 6 59 3.47607422 58.45556641 C0.68197051 56.81304557 -1.3386403 55.01724268 -3.6171875 52.7109375 C-4.47183594 51.85113281 -5.32648438 50.99132812 -6.20703125 50.10546875 C-7.08746094 49.20441406 -7.96789063 48.30335938 -8.875 47.375 C-9.74769531 46.49714844 -10.62039063 45.61929688 -11.51953125 44.71484375 C-15.3160936 40.87260847 -19.0473021 37.009689 -22.5703125 32.9140625 C-26.50783426 28.42044427 -30.77527028 24.22472972 -35 20 C-35.33 32.87 -35.66 45.74 -36 59 C-39.3 59 -42.6 59 -46 59 C-46.02312883 51.58540058 -46.04091785 44.17080889 -46.05181217 36.75618076 C-46.05703982 33.31359652 -46.06413531 29.87103688 -46.07543945 26.4284668 C-46.08834235 22.47444957 -46.09322918 18.52044244 -46.09765625 14.56640625 C-46.10281754 13.32476212 -46.10797882 12.08311798 -46.11329651 10.80384827 C-46.11337204 9.66274094 -46.11344757 8.52163361 -46.11352539 7.34594727 C-46.115746 6.335569 -46.11796661 5.32519073 -46.12025452 4.28419495 C-46 2 -46 2 -45 1 C-40.69888702 0.50007629 -38.66585029 0.5235056 -35.09399414 3.07958984 C-34.13942276 4.02186109 -33.20377747 4.98358563 -32.28515625 5.9609375 C-31.78455185 6.46670319 -31.28394745 6.97246887 -30.76817322 7.49356079 C-29.7189227 8.55988757 -28.67804587 9.63451208 -27.64526367 10.71679688 C-26.05897455 12.37869349 -24.44951718 14.01500065 -22.83398438 15.6484375 C-21.81628705 16.68871563 -20.79996055 17.73033699 -19.78515625 18.7734375 C-19.30401871 19.26621185 -18.82288116 19.75898621 -18.3271637 20.26669312 C-15 23.76438347 -15 23.76438347 -15 26 C-14.15308594 26.33837891 -14.15308594 26.33837891 -13.2890625 26.68359375 C-10.35128875 28.37306432 -8.58134997 30.49826383 -6.375 33.0625 C-3.56907909 36.51651125 -3.56907909 36.51651125 0 39 C0 26.13 0 13.26 0 0 Z " fill="#0C1660" transform="translate(1124,487)"/>
<path d="M0 0 C0.99174728 0.00565979 1.98349457 0.01131958 3.0052948 0.01715088 C6.16418289 0.03949156 9.32192511 0.08968462 12.48046875 0.140625 C14.62563463 0.16069294 16.77081834 0.1789432 18.91601562 0.1953125 C24.1671063 0.23934898 29.41734343 0.30836151 34.66796875 0.390625 C34.66796875 3.690625 34.66796875 6.990625 34.66796875 10.390625 C33.43119385 10.41568115 32.19441895 10.4407373 30.92016602 10.46655273 C26.34860162 10.56044753 21.77719557 10.66071129 17.20581055 10.76293945 C15.22407729 10.80635644 13.24230497 10.84802637 11.26049805 10.88793945 C8.41833705 10.94547883 5.57637392 11.00921945 2.734375 11.07421875 C1.3968795 11.09928749 1.3968795 11.09928749 0.03236389 11.12486267 C-3.9715152 10.827212 -3.9715152 10.827212 -7.33203125 12.390625 C-7.37296062 14.72359933 -7.37444848 17.05767725 -7.33203125 19.390625 C-3.49915784 21.07089929 0.17998743 21.98842193 4.2890625 22.7578125 C5.55427734 23.00402344 6.81949219 23.25023437 8.12304688 23.50390625 C10.11429401 23.88690441 12.10605865 24.26573433 14.09985352 24.63525391 C16.04024547 24.99720472 17.97721653 25.37734301 19.9140625 25.7578125 C21.06575928 25.97550293 22.21745605 26.19319336 23.40405273 26.41748047 C27.95889451 27.77551767 31.32114692 30.04380317 34.66796875 33.390625 C36.54391447 39.39365129 36.74768692 46.19119911 33.98046875 51.828125 C30.29587348 55.9110549 27.04963379 57.5976083 21.66796875 58.390625 C18.51489425 58.5223569 15.36627795 58.50697846 12.2109375 58.48828125 C11.3079744 58.4868663 10.40501129 58.48545135 9.47468567 58.48399353 C6.60157912 58.47841323 3.72855159 58.46586434 0.85546875 58.453125 C-1.09700408 58.44810745 -3.04947814 58.44354499 -5.00195312 58.43945312 C-9.7786761 58.42845025 -14.55534029 58.41119918 -19.33203125 58.390625 C-19.33203125 55.090625 -19.33203125 51.790625 -19.33203125 48.390625 C-17.49257935 48.360896 -17.49257935 48.360896 -15.6159668 48.33056641 C-11.07034617 48.25454881 -6.52504726 48.16582553 -1.97973633 48.07324219 C-0.01170194 48.03493653 1.95640285 48.00008645 3.92456055 47.96875 C6.75204647 47.92313389 9.57904709 47.86513402 12.40625 47.8046875 C13.72826164 47.78736069 13.72826164 47.78736069 15.07698059 47.76968384 C15.89760483 47.74981415 16.71822906 47.72994446 17.5637207 47.70947266 C18.28541946 47.69614899 19.00711823 47.68282532 19.75068665 47.6690979 C21.99398504 47.48336345 21.99398504 47.48336345 24.66796875 45.390625 C25.08463542 42.390625 25.08463542 42.390625 24.66796875 39.390625 C21.98261733 36.70527358 19.91765432 36.69495572 16.19140625 36.0234375 C14.86714915 35.77494388 13.54293168 35.52623896 12.21875 35.27734375 C10.13955465 34.89606843 8.05976501 34.51863299 5.97900391 34.14599609 C-12.69087032 30.77461244 -12.69087032 30.77461244 -17.33203125 24.828125 C-19.0955716 18.76595504 -19.21291242 12.94054417 -17.14453125 6.953125 C-12.27412851 0.0673832 -7.92565332 -0.1707083 0 0 Z " fill="#040E5A" transform="translate(1587.33203125,487.609375)"/>
<path d="M0 0 C1.26108078 0.0001133 1.26108078 0.0001133 2.54763794 0.00022888 C3.91020218 0.00797081 3.91020218 0.00797081 5.30029297 0.01586914 C6.22969696 0.01728409 7.15910095 0.01869904 8.1166687 0.02015686 C11.09197171 0.02576486 14.06720011 0.03831871 17.04248047 0.05102539 C19.0568023 0.05603936 21.07112531 0.06060245 23.08544922 0.06469727 C28.02948849 0.07573689 32.97347182 0.0930069 37.91748047 0.11352539 C37.91748047 3.41352539 37.91748047 6.71352539 37.91748047 10.11352539 C36.7412915 10.13858154 35.56510254 10.1636377 34.35327148 10.18945312 C30.00533425 10.28335346 25.65756331 10.38361587 21.30981445 10.48583984 C19.42508829 10.52925472 17.54032111 10.57092482 15.65551758 10.61083984 C12.95234798 10.66838432 10.24938611 10.73212343 7.54638672 10.79711914 C6.69847061 10.81383163 5.8505545 10.83054413 4.97694397 10.84776306 C1.13455971 10.57761734 1.13455971 10.57761734 -2.08251953 12.11352539 C-2.41251953 16.07352539 -2.74251953 20.03352539 -3.08251953 24.11352539 C9.45748047 24.11352539 21.99748047 24.11352539 34.91748047 24.11352539 C34.91748047 27.08352539 34.91748047 30.05352539 34.91748047 33.11352539 C22.37748047 33.11352539 9.83748047 33.11352539 -3.08251953 33.11352539 C-3.32020937 43.51601995 -3.32020937 43.51601995 0.91748047 47.11352539 C3.78013507 47.44473081 6.43714651 47.60216631 9.30419922 47.62524414 C10.52971245 47.65217094 10.52971245 47.65217094 11.77998352 47.67964172 C14.38826341 47.73380327 16.99635972 47.76765847 19.60498047 47.80102539 C21.37388626 47.83419339 23.1427678 47.86868256 24.91162109 47.90454102 C29.2467752 47.98953285 33.58187431 48.05631574 37.91748047 48.11352539 C37.91748047 51.41352539 37.91748047 54.71352539 37.91748047 58.11352539 C32.77629992 58.16319125 27.63526095 58.19937034 22.49389648 58.22338867 C20.74712692 58.23340807 19.00037397 58.24702734 17.25366211 58.2644043 C14.73400762 58.28883208 12.21457608 58.30004928 9.69482422 58.30883789 C8.92162338 58.31916046 8.14842255 58.32948303 7.35179138 58.34011841 C1.27410079 58.34135869 -3.99899638 57.78034391 -8.89501953 53.86352539 C-12.94422935 48.7730902 -13.33720076 43.88905286 -13.34814453 37.51977539 C-13.35005798 36.81002563 -13.35197144 36.10027588 -13.35394287 35.36901855 C-13.35529683 33.87646121 -13.35165581 32.38389178 -13.34326172 30.89135742 C-13.33255049 28.62008963 -13.34318344 26.34961264 -13.35595703 24.07836914 C-13.3546353 22.62133616 -13.35207261 21.16430367 -13.34814453 19.70727539 C-13.34588867 18.39436523 -13.34363281 17.08145508 -13.34130859 15.72875977 C-12.86468207 9.07037711 -11.10359058 5.50696256 -6.08251953 1.11352539 C-3.79620459 -0.02963208 -2.53904547 -0.00760193 0 0 Z " fill="#010B58" transform="translate(1644.08251953125,487.886474609375)"/>
<path d="M0 0 C3.3 0 6.6 0 10 0 C10 7.92 10 15.84 10 24 C21.88 24 33.76 24 46 24 C46 16.08 46 8.16 46 0 C49.3 0 52.6 0 56 0 C56 19.14 56 38.28 56 58 C52.7 58 49.4 58 46 58 C46 49.75 46 41.5 46 33 C34.12 33 22.24 33 10 33 C10 41.25 10 49.5 10 58 C6.7 58 3.4 58 0 58 C0 38.86 0 19.72 0 0 Z " fill="#000A57" transform="translate(865,488)"/>
<path d="M0 0 C3.3 0 6.6 0 10 0 C10.01458252 1.28165039 10.02916504 2.56330078 10.04418945 3.88378906 C10.1021732 8.64009465 10.17940633 13.39592685 10.26245117 18.15185547 C10.29570011 20.21004553 10.32373214 22.26832676 10.34643555 24.32666016 C10.3799819 27.28587691 10.43229802 30.24425817 10.48828125 33.203125 C10.49467117 34.12305237 10.5010611 35.04297974 10.50764465 35.99078369 C10.60455253 40.96531925 10.60455253 40.96531925 12.34448242 45.54980469 C16.44706287 49.14357078 22.18477704 48.22215086 27.3125 48.25 C28.71918945 48.2809375 28.71918945 48.2809375 30.15429688 48.3125 C35.51432641 48.34271863 39.40074735 48.09117796 44 45 C45.1415622 42.7168756 45.15334372 41.36520695 45.20532227 38.82568359 C45.22526749 37.96494232 45.24521271 37.10420105 45.26576233 36.21737671 C45.28247482 35.28712677 45.29918732 34.35687683 45.31640625 33.3984375 C45.33718735 32.44683746 45.35796844 31.49523743 45.37937927 30.51480103 C45.44488133 27.46827568 45.5037628 24.42166257 45.5625 21.375 C45.60568459 19.31249084 45.64929886 17.24999063 45.69335938 15.1875 C45.8005634 10.12509046 45.90182902 5.06259245 46 0 C49.63 0 53.26 0 57 0 C57.12425323 6.10140685 57.21464741 12.20206584 57.2746582 18.30444336 C57.29969303 20.37716514 57.33373145 22.4497996 57.37719727 24.5222168 C57.43833661 27.5137291 57.46632048 30.50406734 57.48828125 33.49609375 C57.51408768 34.41208847 57.5398941 35.32808319 57.56648254 36.27183533 C57.5693031 42.84595954 56.06568657 47.75598101 52 53 C44.64069398 59.04019392 37.44584947 59.20095547 28.25 59.25 C27.29867188 59.270625 26.34734375 59.29125 25.3671875 59.3125 C17.8132148 59.35389163 11.14143119 58.52680335 5.125 53.6875 C0.10821615 47.34274395 -0.42005603 42.39516959 -0.29296875 34.5703125 C-0.28872391 33.57998016 -0.28447906 32.58964783 -0.28010559 31.56930542 C-0.26337622 28.42092155 -0.22573419 25.27318887 -0.1875 22.125 C-0.17244576 19.98438428 -0.15875865 17.84375847 -0.14648438 15.703125 C-0.11349142 10.4685009 -0.06174836 5.23436068 0 0 Z " fill="#09135E" transform="translate(1308,487)"/>
<path d="M0 0 C2.02844287 -0.01718404 4.05524251 -0.06106773 6.08325195 -0.10522461 C7.36651367 -0.11360352 8.64977539 -0.12198242 9.97192383 -0.13061523 C11.73596558 -0.15248901 11.73596558 -0.15248901 13.53564453 -0.17480469 C17.37058544 0.38876973 18.99465517 1.60930216 21.73364258 4.29516602 C23.83719853 8.50227791 23.00738534 13.98521895 23.04614258 18.60766602 C23.07514648 19.74913086 23.10415039 20.8905957 23.1340332 22.06665039 C23.19783635 30.46412595 23.19783635 30.46412595 20.96411133 34.46313477 C15.16156429 39.22914976 9.60760222 38.6619098 2.35864258 38.67016602 C1.23458008 38.6946582 0.11051758 38.71915039 -1.04760742 38.74438477 C-7.37080664 38.76680746 -11.58154775 38.76062005 -16.26635742 34.29516602 C-19.32995653 29.39992291 -18.63473862 23.94724462 -18.64135742 18.35766602 C-18.66584961 17.27291992 -18.6903418 16.18817383 -18.71557617 15.07055664 C-18.74497067 7.09974837 -18.74497067 7.09974837 -16.36791992 3.10375977 C-11.60019721 -0.99931759 -6.03433737 0.03562869 0 0 Z " fill="#F8F9FB" transform="translate(1027.266357421875,497.704833984375)"/>
<path d="M0 0 C1.28003906 -0.01611328 2.56007813 -0.03222656 3.87890625 -0.04882812 C5.11253906 -0.04947266 6.34617187 -0.05011719 7.6171875 -0.05078125 C8.74495605 -0.05376221 9.87272461 -0.05674316 11.03466797 -0.05981445 C14.50538843 0.35832812 16.3443282 1.22561897 19.125 3.3125 C22.29083506 8.06125258 21.49371145 13.10326608 21.5 18.6875 C21.52449219 19.82445312 21.54898437 20.96140625 21.57421875 22.1328125 C21.60353535 30.45872549 21.60353535 30.45872549 19.3515625 34.4765625 C13.66310497 39.16704502 8.36452563 38.64614901 1.25 38.625 C0.17363281 38.64111328 -0.90273437 38.65722656 -2.01171875 38.67382812 C-12.31139263 38.68017811 -12.31139263 38.68017811 -16.875 35.3125 C-21.15903953 30.75731873 -20.31599949 24.68645435 -20.25 18.8125 C-20.26160156 17.77996094 -20.27320313 16.74742187 -20.28515625 15.68359375 C-20.24835581 6.1768137 -20.24835581 6.1768137 -16.875 2.3125 C-11.83015146 -1.05073236 -5.92381643 -0.01482437 0 0 Z " fill="#F7F9FB" transform="translate(1459.875,497.6875)"/>
<path d="M0 0 C1.27617188 -0.03738281 2.55234375 -0.07476562 3.8671875 -0.11328125 C14.42579158 -0.21247482 14.42579158 -0.21247482 18.09765625 2.0546875 C21.55897969 7.39429716 21.0784062 12.6554658 20.9375 18.875 C20.95232422 20.09832031 20.96714844 21.32164062 20.98242188 22.58203125 C20.89008117 32.5222361 20.89008117 32.5222361 17.89453125 35.65625 C12.28067554 39.3048416 6.42355442 38.6693368 -0.0625 38.75 C-1.19107422 38.78738281 -2.31964844 38.82476563 -3.48242188 38.86328125 C-12.80725991 38.96207294 -12.80725991 38.96207294 -16.48046875 35.9765625 C-20.95899714 30.84282772 -20.00743029 25.63048067 -20.0625 19.0625 C-20.09150391 17.92103516 -20.12050781 16.77957031 -20.15039062 15.60351562 C-20.21449018 7.16702759 -20.21449018 7.16702759 -17.85546875 3.14453125 C-12.77039825 -1.12919219 -6.35738931 0.0697917 0 0 Z " fill="#FAFBFC" transform="translate(1265.75,497.625)"/>
<path d="M0 0 C3.3 0 6.6 0 10 0 C10.01981934 1.21582764 10.03963867 2.43165527 10.06005859 3.68432617 C10.13624695 8.20390198 10.22494405 12.7231614 10.31738281 17.24243164 C10.35561789 19.19679509 10.39048027 21.15122759 10.421875 23.10571289 C10.46764435 25.91838222 10.52561923 28.73057839 10.5859375 31.54296875 C10.59748871 32.41398727 10.60903992 33.2850058 10.62094116 34.18241882 C10.74712978 40.3367645 10.74712978 40.3367645 13 46 C17.70328074 47.56776025 22.44889772 47.22579311 27.375 47.25 C28.93734375 47.2809375 28.93734375 47.2809375 30.53125 47.3125 C37.83542039 47.50405483 37.83542039 47.50405483 44 44 C45.65731768 41.20866512 46.25749035 39.10550833 46.31884766 35.87402344 C46.33871735 35.07349548 46.35858704 34.27296753 46.37905884 33.44818115 C46.39061005 32.59387512 46.40216125 31.73956909 46.4140625 30.859375 C46.43342865 29.97719299 46.4527948 29.09501099 46.4727478 28.18609619 C46.53242848 25.37416184 46.57888283 22.5621863 46.625 19.75 C46.66319038 17.84112819 46.70224273 15.93227341 46.7421875 14.0234375 C46.83812058 9.34909704 46.92219416 4.67467591 47 0 C50.3 0 53.6 0 57 0 C57.09944869 5.81660061 57.1717413 11.63269792 57.21972656 17.44995117 C57.23974646 19.4256249 57.26697092 21.40124009 57.30175781 23.37670898 C57.35070207 26.2291515 57.37306525 29.08080549 57.390625 31.93359375 C57.41127014 32.80584091 57.43191528 33.67808807 57.45318604 34.57676697 C57.45559597 41.27867157 56.02917037 47.30484107 51.69390869 52.59324646 C44.97386704 58.84948678 35.5899079 58.36436893 27 58.375 C25.9584375 58.39949219 24.916875 58.42398438 23.84375 58.44921875 C16.68670534 58.47632877 10.87090257 57.59903107 5.48095703 52.58764648 C0.0014078 46.42438684 -0.28398244 40.96322586 -0.1953125 33.10546875 C-0.1924826 32.15811356 -0.18965271 31.21075836 -0.18673706 30.23469543 C-0.17557187 27.21883334 -0.15047389 24.20327184 -0.125 21.1875 C-0.11496547 19.13867617 -0.10584045 17.08984768 -0.09765625 15.04101562 C-0.07564449 10.02722852 -0.04113971 5.01366517 0 0 Z " fill="#010C58" transform="translate(1502,488)"/>
<path d="M0 0 C18.81 0 37.62 0 57 0 C57 2.97 57 5.94 57 9 C49.08 9 41.16 9 33 9 C33 25.17 33 41.34 33 58 C29.7 58 26.4 58 23 58 C23 41.83 23 25.66 23 9 C15.41 9 7.82 9 0 9 C0 6.03 0 3.06 0 0 Z " fill="#000A57" transform="translate(1172,488)"/>
<path d="M0 0 C18.81 0 37.62 0 57 0 C57 2.97 57 5.94 57 9 C49.41 9.33 41.82 9.66 34 10 C33.67 25.84 33.34 41.68 33 58 C30.03 58 27.06 58 24 58 C23 57 23 57 22.87974548 55.05747986 C22.8830764 53.78173851 22.8830764 53.78173851 22.88647461 52.48022461 C22.88655014 51.51930405 22.88662567 50.55838348 22.88670349 49.56834412 C22.89186478 48.523564 22.89702606 47.47878387 22.90234375 46.40234375 C22.9037587 45.33834854 22.90517365 44.27435333 22.90663147 43.17811584 C22.91224936 39.76454917 22.92480489 36.351047 22.9375 32.9375 C22.94251269 30.62955824 22.947076 28.32161545 22.95117188 26.01367188 C22.96137567 20.34240279 22.98094757 14.67127399 23 9 C15.41 9 7.82 9 0 9 C0 6.03 0 3.06 0 0 Z " fill="#010B58" transform="translate(557,488)"/>
<path d="M0 0 C18.81 0 37.62 0 57 0 C57 2.97 57 5.94 57 9 C49.08 9 41.16 9 33 9 C33 25.17 33 41.34 33 58 C30.03 58 27.06 58 24 58 C23 57 23 57 22.87974548 55.05747986 C22.8830764 53.78173851 22.8830764 53.78173851 22.88647461 52.48022461 C22.88655014 51.51930405 22.88662567 50.55838348 22.88670349 49.56834412 C22.89186478 48.523564 22.89702606 47.47878387 22.90234375 46.40234375 C22.9037587 45.33834854 22.90517365 44.27435333 22.90663147 43.17811584 C22.91224936 39.76454917 22.92480489 36.351047 22.9375 32.9375 C22.94251269 30.62955824 22.947076 28.32161545 22.95117188 26.01367188 C22.96137567 20.34240279 22.98094757 14.67127399 23 9 C15.41 9 7.82 9 0 9 C0 6.03 0 3.06 0 0 Z " fill="#000A57" transform="translate(794,488)"/>
<path d="M0 0 C3.63 0 7.26 0 11 0 C11.33 15.84 11.66 31.68 12 48 C23.55 48.33 35.1 48.66 47 49 C47 51.97 47 54.94 47 58 C45.05783586 59.94216414 41.39674443 59.18733562 38.74609375 59.203125 C37.64467796 59.21167511 37.64467796 59.21167511 36.52101135 59.22039795 C34.95990445 59.22986741 33.39877738 59.23638962 31.83764648 59.24023438 C29.47147411 59.24986177 27.1061997 59.28083174 24.74023438 59.3125 C23.22135931 59.31903793 21.70247803 59.32428529 20.18359375 59.328125 C19.48431259 59.3404718 18.78503143 59.3528186 18.06455994 59.36553955 C11.58922325 59.33682943 6.21106061 58.2036468 1.52441406 53.53271484 C-0.66120334 48.46771103 -0.49665286 43.93441109 -0.390625 38.4765625 C-0.38496521 37.37524994 -0.37930542 36.27393738 -0.37347412 35.13925171 C-0.35114742 31.63405237 -0.30095572 28.12988854 -0.25 24.625 C-0.22993031 22.24350438 -0.21168036 19.86199269 -0.1953125 17.48046875 C-0.1512944 11.65324901 -0.08229049 5.82679986 0 0 Z " fill="#0C1761" transform="translate(1376,487)"/>
<path d="M0 0 C3.3 0 6.6 0 10 0 C10.33 15.84 10.66 31.68 11 48 C22.55 48.33 34.1 48.66 46 49 C46 52.3 46 55.6 46 59 C41.14365099 59.0496911 36.28745224 59.08585664 31.4309082 59.10986328 C29.78114237 59.11987851 28.13139409 59.1334946 26.48168945 59.15087891 C24.10102995 59.17532542 21.72060653 59.18652803 19.33984375 59.1953125 C18.24566383 59.21079636 18.24566383 59.21079636 17.12937927 59.22659302 C11.19808742 59.22787265 6.01007367 58.99177069 1.58691406 54.60888672 C-0.68369782 49.44516597 -0.49681866 44.83670955 -0.390625 39.2578125 C-0.38496521 38.13430389 -0.37930542 37.01079529 -0.37347412 35.85324097 C-0.351144 32.27672109 -0.30095146 28.70121537 -0.25 25.125 C-0.22993076 22.695327 -0.21168073 20.26563825 -0.1953125 17.8359375 C-0.15128983 11.89023625 -0.08228337 5.94528988 0 0 Z " fill="#07115C" transform="translate(940,487)"/>
<path d="M0 0 C4.33565874 1.08391468 4.60716837 1.28479818 6.91674805 4.73779297 C7.45377853 5.52886444 7.99080902 6.31993591 8.54411316 7.13497925 C9.110923 7.99535797 9.67773285 8.85573669 10.26171875 9.7421875 C10.8529805 10.62149933 11.44424225 11.50081116 12.05342102 12.4067688 C13.30177888 14.26777011 14.54466132 16.13245424 15.7824707 18.00048828 C17.68001127 20.8637002 19.59324721 23.71587122 21.50976562 26.56640625 C22.71968163 28.37437689 23.92869668 30.18295085 25.13671875 31.9921875 C25.70960129 32.84851776 26.28248383 33.70484802 26.87272644 34.58712769 C27.40030045 35.38450348 27.92787445 36.18187927 28.47143555 37.00341797 C28.93680222 37.70433563 29.40216888 38.4052533 29.88163757 39.12741089 C31 41 31 41 32 44 C32.66 44 33.32 44 34 44 C34.21462891 43.3505542 34.42925781 42.7011084 34.65039062 42.03198242 C36.50868757 37.85720136 39.02353192 34.25576541 41.59375 30.48828125 C42.14107788 29.67884567 42.68840576 28.8694101 43.25231934 28.03544617 C44.40669862 26.33030109 45.56336543 24.62670271 46.72216797 22.92456055 C48.49854356 20.31463987 50.26740643 17.6997531 52.03515625 15.08398438 C53.15841677 13.42678678 54.28210018 11.76987573 55.40625 10.11328125 C55.9364978 9.32995926 56.46674561 8.54663727 57.01306152 7.73957825 C57.50697388 7.01509995 58.00088623 6.29062164 58.50976562 5.54418945 C59.16023865 4.58752129 59.16023865 4.58752129 59.82385254 3.61152649 C61 2 61 2 63 0 C63.99 0 64.98 0 66 0 C66 19.14 66 38.28 66 58 C65.01 58 64.02 58 63 58 C63 41.5 63 25 63 8 C59.52282005 11.47717995 56.85753632 14.91290202 54.15625 18.9609375 C53.70527954 19.62912506 53.25430908 20.29731262 52.78967285 20.98574829 C51.35558772 23.11270985 49.92773143 25.2437697 48.5 27.375 C47.54077036 28.79975244 46.5811388 30.22423438 45.62109375 31.6484375 C41.73202201 37.4220618 37.85886718 43.2061485 34 49 C30.16864563 47.52131389 28.81044933 45.57181554 26.734375 42.08984375 C23.08251776 36.11806333 19.2051492 30.33670079 15.25 24.5625 C14.59128906 23.59634766 13.93257812 22.63019531 13.25390625 21.63476562 C9.88026167 16.65139857 9.88026167 16.65139857 6.29199219 11.82397461 C5 10 5 10 5 8 C4.34 8 3.68 8 3 8 C3 24.5 3 41 3 58 C2.01 58 1.02 58 0 58 C0 38.86 0 19.72 0 0 Z " fill="#19246B" transform="translate(561,564)"/>
<path d="M0 0 C4.96628434 -0.02290956 9.93238663 -0.04283643 14.89868164 -0.05493164 C16.58944316 -0.0599719 18.28020029 -0.06680405 19.97094727 -0.07543945 C22.39600707 -0.08751857 24.82100944 -0.09323123 27.24609375 -0.09765625 C28.38672523 -0.10539818 28.38672523 -0.10539818 29.55039978 -0.11329651 C31.3673257 -0.11349238 33.18413127 -0.06197277 35 0 C36.98119355 1.98119355 36.18500411 5.73445064 36.1875 8.4375 C36.19974609 9.13166016 36.21199219 9.82582031 36.22460938 10.54101562 C36.22989842 12.36220901 36.12169207 14.1828692 36 16 C34 18 34 18 30.65185547 18.22705078 C29.22359367 18.22673375 27.79530788 18.21541361 26.3671875 18.1953125 C25.23943405 18.19106766 25.23943405 18.19106766 24.08889771 18.18673706 C21.68410422 18.17552874 19.27968119 18.15042352 16.875 18.125 C15.24609912 18.11497102 13.61719242 18.10584503 11.98828125 18.09765625 C7.99192945 18.07728748 3.9963801 18.03814149 0 18 C0 12.06 0 6.12 0 0 Z " fill="#F8F8FB" transform="translate(639,498)"/>
<path d="M0 0 C1.06250221 -0.00574036 1.06250221 -0.00574036 2.14646912 -0.01159668 C3.63306106 -0.01430045 5.11970184 -0.00704742 6.60620117 0.00976562 C8.86941277 0.03123405 11.1294627 0.00989978 13.39257812 -0.015625 C14.84505902 -0.01298207 16.29753796 -0.0078578 17.75 0 C19.05654541 0.00451172 20.36309082 0.00902344 21.70922852 0.01367188 C27.00134747 0.774663 30.81107444 3.44238799 34.12109375 7.59375 C38.40402355 13.34511288 37.56536682 19.69824306 37.60375977 26.56274414 C37.6152446 27.9912306 37.63564111 29.41967533 37.6652832 30.84790039 C37.97168647 45.62201555 37.97168647 45.62201555 33.30859375 52.53125 C26.56202904 59.10482587 19.5378043 58.93208421 10.5534668 58.95678711 C8.51162791 58.96865967 6.47284065 59.01786511 4.43164062 59.06835938 C-3.20908235 59.10986454 -8.89953902 58.84759287 -14.69140625 53.53125 C-20.76711085 46.9881835 -19.97470194 40.08487965 -20.04150391 31.64526367 C-20.0580103 30.11971728 -20.08523031 28.59424654 -20.12353516 27.0690918 C-20.50232228 11.88631574 -20.50232228 11.88631574 -16.45556641 6.08081055 C-11.18263563 1.44930049 -6.98533541 0.02410072 0 0 Z M-12.69140625 7.53125 C-17.56958417 13.69266127 -17.36975209 19.29720332 -17.32275391 26.7890625 C-17.31643895 28.8953447 -17.36336697 30.99597544 -17.4140625 33.1015625 C-17.48160101 40.24180186 -17.15127295 45.64884591 -12.37255859 51.23291016 C-10.49019174 52.68664627 -9.01797259 53.13412375 -6.69140625 53.53125 C-6.69140625 54.19125 -6.69140625 54.85125 -6.69140625 55.53125 C-2.56577327 55.68078502 1.558788 55.7890115 5.68652344 55.86083984 C7.08719392 55.89081277 8.48767991 55.93160808 9.88769531 55.98388672 C20.73231213 56.39023808 20.73231213 56.39023808 29.90820312 51.12353516 C33.38095028 47.17491992 33.61600192 44.21719773 33.609375 39.1953125 C33.61580269 38.12076309 33.61580269 38.12076309 33.62236023 37.02450562 C33.62809894 35.5098374 33.62860715 33.99514162 33.62426758 32.48046875 C33.62111443 30.17139193 33.64454644 27.8636053 33.66992188 25.5546875 C33.67219573 24.08073078 33.67289796 22.60677062 33.671875 21.1328125 C33.68108475 20.44619537 33.69029449 19.75957825 33.69978333 19.05215454 C33.65805583 14.69353726 32.93578225 12.01401221 30.30859375 8.53125 C23.58822516 2.48291827 17.21138072 3.28416926 8.55859375 3.21875 C6.66367187 3.17524414 6.66367187 3.17524414 4.73046875 3.13085938 C-4.72308246 3.04326057 -4.72308246 3.04326057 -12.69140625 7.53125 Z " fill="#19236B" transform="translate(849.69140625,563.46875)"/>
<path d="M0 0 C7.46625 -0.103125 14.9325 -0.20625 22.625 -0.3125 C24.97189941 -0.35802002 27.31879883 -0.40354004 29.73681641 -0.45043945 C31.60838392 -0.46504997 33.47996737 -0.4777893 35.3515625 -0.48828125 C36.31408936 -0.51386108 37.27661621 -0.53944092 38.26831055 -0.5657959 C42.76488342 -0.56870743 45.99002419 -0.51712576 49.60302734 2.34301758 C53.66728971 6.84814768 53.21328334 11.0709328 53.25 16.8125 C53.270625 17.60720703 53.29125 18.40191406 53.3125 19.22070312 C53.35146525 25.1093263 52.43780936 29.47812825 48.1875 33.875 C45.34798172 35.33532369 43.14704859 35.21457149 40 35 C43.39695088 41.46727186 47.27381568 47.48687186 51.42578125 53.49609375 C53 56 53 56 53 58 C51.68 58 50.36 58 49 58 C47.76855469 55.99633789 47.76855469 55.99633789 46.671875 53.22265625 C43.65620411 46.66466702 40.79511943 40.52612249 35 36 C24.70570691 32.9000291 13.56837993 34.09921372 3 35 C3 42.59 3 50.18 3 58 C2.01 58 1.02 58 0 58 C0 38.86 0 19.72 0 0 Z M3 3 C3 12.57 3 22.14 3 32 C8.76598708 32.04592379 14.531339 32.08574573 20.29736328 32.10986328 C22.25864818 32.11991783 24.21991811 32.13356333 26.18115234 32.15087891 C29.00101418 32.17515113 31.82067772 32.18648859 34.640625 32.1953125 C35.95489471 32.21079636 35.95489471 32.21079636 37.29571533 32.22659302 C38.52653839 32.22681961 38.52653839 32.22681961 39.78222656 32.22705078 C40.86144379 32.23371262 40.86144379 32.23371262 41.96246338 32.24050903 C44.39141575 31.95379763 45.9334754 31.30261454 48 30 C50.75939963 25.86090056 50.40462123 22.49105794 50.4375 17.625 C50.47037109 16.77421875 50.50324219 15.9234375 50.53710938 15.046875 C50.54419922 14.21929688 50.55128906 13.39171875 50.55859375 12.5390625 C50.57204834 11.78834473 50.58550293 11.03762695 50.59936523 10.26416016 C49.62999788 6.60228121 48.03886988 5.22417047 45 3 C41.76197776 2.33027619 38.61887173 2.41649649 35.32421875 2.51171875 C34.3990596 2.51879349 33.47390045 2.52586823 32.52070618 2.53315735 C29.57546997 2.56107185 26.63215827 2.62380443 23.6875 2.6875 C21.68687648 2.7125867 19.68622306 2.73539922 17.68554688 2.75585938 C12.78903282 2.80663202 7.89666152 2.90448645 3 3 Z " fill="#172169" transform="translate(763,564)"/>
<path d="M0 0 C2.18853879 0.00851004 4.37446255 -0.02028773 6.56274414 -0.05200195 C19.61124202 -0.11802591 19.61124202 -0.11802591 25.26000977 4.44604492 C29.73827595 9.39570755 30.43268153 12.53846377 30.49829102 19.05151367 C30.50636276 19.80894363 30.51443451 20.5663736 30.52275085 21.34675598 C30.53659278 22.95315259 30.54731446 24.55957862 30.55517578 26.16601562 C30.5723229 28.60694389 30.61619707 31.04649399 30.66040039 33.48706055 C30.67053354 35.05020166 30.6790477 36.61335426 30.68579102 38.17651367 C30.7032991 38.89969284 30.72080719 39.62287201 30.73884583 40.3679657 C30.71590229 45.80858448 29.36103429 48.96010361 26.26000977 53.44604492 C19.2081297 58.91484987 13.29330596 58.69122397 4.65576172 58.74121094 C3.27577429 58.75269331 1.89582996 58.77308595 0.51611328 58.80273438 C-15.60925114 59.14895487 -15.60925114 59.14895487 -22.30053711 53.015625 C-27.24151032 46.90937681 -26.52756835 38.77806896 -26.44677734 31.32836914 C-26.42752338 28.95013924 -26.46702297 26.57774536 -26.51147461 24.19995117 C-26.59048396 10.56089489 -26.59048396 10.56089489 -21.61425781 4.8737793 C-14.8188184 -0.30268673 -8.15203901 -0.04839902 0 0 Z M-21.08398438 9.74121094 C-23.23172522 13.24921931 -23.2420338 15.6255173 -23.23608398 19.72338867 C-23.23753922 20.41235733 -23.23899445 21.10132599 -23.24049377 21.81117249 C-23.23884014 23.26266728 -23.22733867 24.71418058 -23.20654297 26.16552734 C-23.17761876 28.37373277 -23.18593678 30.5795287 -23.19897461 32.7878418 C-23.16227691 41.11609983 -23.08334863 47.04172768 -16.95483398 53.28198242 C-11.39486791 56.92245378 -4.69634037 56.16700065 1.69750977 56.07104492 C2.98206055 56.09038086 4.26661133 56.1097168 5.59008789 56.12963867 C12.125352 56.0959691 17.23190018 55.81255643 22.72900391 52.10375977 C28.35611597 46.0109371 27.75345033 38.82085006 27.70605469 31.07836914 C27.69753062 28.95124922 27.72636751 26.82680742 27.75805664 24.69995117 C27.75966877 23.33406655 27.75909089 21.96817723 27.75610352 20.60229492 C27.75795654 19.37317383 27.75980957 18.14405273 27.76171875 16.87768555 C27.04772405 11.99403127 24.8721755 8.86279663 21.19750977 5.63354492 C15.95193842 2.41851732 9.92316015 3.18633443 3.97314453 3.15087891 C1.96501785 3.13369474 -0.04282198 3.08979068 -2.05053711 3.0456543 C-3.32606445 3.03727539 -4.6015918 3.02889648 -5.91577148 3.02026367 C-7.08019775 3.00568115 -8.24462402 2.99109863 -9.44433594 2.97607422 C-14.56313688 3.70603139 -17.46154644 6.1942326 -21.08398438 9.74121094 Z " fill="#141F67" transform="translate(988.739990234375,563.553955078125)"/>
<path d="M0 0 C3.3 0 6.6 0 10 0 C10 19.14 10 38.28 10 58 C6.7 58 3.4 58 0 58 C0 38.86 0 19.72 0 0 Z " fill="#000A57" transform="translate(705,488)"/>
<path d="M0 0 C5.08538407 5.50916608 5.20731214 9.1356042 5.25 16.3125 C5.270625 17.16779297 5.29125 18.02308594 5.3125 18.90429688 C5.34243939 23.73576633 5.3013469 27.1923541 2 31 C-2.94872918 35.0349093 -6.35163583 35.55735248 -12.4609375 35.390625 C-13.25150543 35.38496521 -14.04207336 35.37930542 -14.8565979 35.37347412 C-17.36336727 35.35121487 -19.86866813 35.30104153 -22.375 35.25 C-24.0820105 35.22992133 -25.78904357 35.21167296 -27.49609375 35.1953125 C-31.66507318 35.15479764 -35.83090752 35.07649711 -40 35 C-40 42.26 -40 49.52 -40 57 C-41.32 57 -42.64 57 -44 57 C-44.16892576 37.97636086 -43.68675267 19.00807193 -43 0 C-37.67996536 -0.16802516 -32.35977627 -0.32854056 -27.03930664 -0.48217773 C-25.23032575 -0.53546404 -23.42140351 -0.59078238 -21.61254883 -0.64819336 C-19.0087549 -0.73047869 -16.40483582 -0.80539339 -13.80078125 -0.87890625 C-12.99538406 -0.90594131 -12.18998688 -0.93297638 -11.36018372 -0.96083069 C-3.68635438 -1.1636361 -3.68635438 -1.1636361 0 0 Z M-40 2 C-40 11.57 -40 21.14 -40 31 C-34.96316374 31.11499626 -29.93090361 31.2144576 -24.89379883 31.2746582 C-23.18172755 31.29975714 -21.46976296 31.33384429 -19.75805664 31.37719727 C-17.29286355 31.43805739 -14.82909015 31.46625432 -12.36328125 31.48828125 C-11.60163162 31.51408768 -10.83998199 31.5398941 -10.05525208 31.56648254 C-6.09544604 31.56855848 -4.21192328 31.15975755 -1.01660156 28.75097656 C1.02388283 25.96741988 1.63218916 24.86618046 1.62890625 21.49609375 C1.63083984 20.67302734 1.63277344 19.84996094 1.63476562 19.00195312 C1.59899414 17.73254883 1.59899414 17.73254883 1.5625 16.4375 C1.57893555 15.16229492 1.57893555 15.16229492 1.59570312 13.86132812 C1.54942075 9.9273265 1.51690387 7.70705455 -0.84765625 4.47265625 C-4.98595325 1.64118988 -8.91414927 1.86820813 -13.73046875 1.90234375 C-14.85609978 1.90446617 -14.85609978 1.90446617 -16.00447083 1.90663147 C-18.3988546 1.9122244 -20.79314453 1.92477556 -23.1875 1.9375 C-24.81184761 1.94251592 -26.43619668 1.94707866 -28.06054688 1.95117188 C-32.04042975 1.9613402 -36.02010993 1.98091688 -40 2 Z " fill="#212C72" transform="translate(945,565)"/>
<path d="M0 0 C0.90720795 0.00141495 1.81441589 0.0028299 2.74911499 0.00428772 C5.65308905 0.00989529 8.55698665 0.02244907 11.4609375 0.03515625 C13.42708222 0.04017027 15.39322815 0.04473335 17.359375 0.04882812 C22.1849254 0.05986719 27.01041847 0.0771369 31.8359375 0.09765625 C31.8359375 1.08765625 31.8359375 2.07765625 31.8359375 3.09765625 C30.6399292 3.10700195 29.4439209 3.11634766 28.21166992 3.12597656 C23.77769612 3.16582439 19.34442002 3.23156816 14.91088867 3.30517578 C12.99138343 3.33341573 11.07176125 3.3546152 9.15209961 3.36865234 C6.39375812 3.39004036 3.63682712 3.43666758 0.87890625 3.48828125 C0.01943893 3.48950989 -0.84002838 3.49073853 -1.72554016 3.49200439 C-2.52614365 3.51172302 -3.32674713 3.53144165 -4.15161133 3.55175781 C-4.8555452 3.56064026 -5.55947906 3.56952271 -6.28474426 3.57867432 C-8.77236333 4.05952708 -8.77236333 4.05952708 -11.1640625 8.09765625 C-11.4940625 14.36765625 -11.8240625 20.63765625 -12.1640625 27.09765625 C1.6959375 27.09765625 15.5559375 27.09765625 29.8359375 27.09765625 C29.8359375 28.08765625 29.8359375 29.07765625 29.8359375 30.09765625 C15.9759375 30.09765625 2.1159375 30.09765625 -12.1640625 30.09765625 C-12.54302395 47.00570905 -12.54302395 47.00570905 -9.1640625 53.09765625 C-5.83707613 54.76114944 -2.09976865 54.34143682 1.5625 54.4140625 C2.85672379 54.44523415 2.85672379 54.44523415 4.17709351 54.47703552 C6.93829243 54.54251659 9.69958788 54.60140923 12.4609375 54.66015625 C14.33073922 54.70334285 16.20053112 54.74695718 18.0703125 54.79101562 C22.65875478 54.89819649 27.24729433 54.999468 31.8359375 55.09765625 C31.8359375 56.08765625 31.8359375 57.07765625 31.8359375 58.09765625 C26.24926786 58.22159261 20.66340467 58.3121538 15.07568359 58.37231445 C13.17645319 58.39740229 11.2773188 58.43148093 9.37841797 58.47485352 C6.64266229 58.53575955 3.9081868 58.56392278 1.171875 58.5859375 C0.32789154 58.61174393 -0.51609192 58.63755035 -1.38565063 58.66413879 C-5.62299527 58.66613817 -8.3258973 58.40959723 -11.68505859 55.69213867 C-14.76561937 52.46807728 -15.28674432 51.12255212 -15.34106445 46.8190918 C-15.35389969 45.93444748 -15.36673492 45.04980316 -15.37995911 44.13835144 C-15.38734604 43.18003922 -15.39473297 42.22172699 -15.40234375 41.234375 C-15.4104155 40.25024124 -15.41848724 39.26610748 -15.42680359 38.25215149 C-15.44064915 36.16657272 -15.45136918 34.08097125 -15.45922852 31.99536133 C-15.47643743 28.8083187 -15.52031917 25.62231434 -15.56445312 22.43554688 C-15.57458029 20.41016389 -15.58309632 18.38477207 -15.58984375 16.359375 C-15.60735184 15.40713547 -15.62485992 14.45489594 -15.64289856 13.47380066 C-15.62876389 9.15401627 -15.57499189 6.76298306 -13.26245117 3.01879883 C-9.20069888 -0.69986653 -5.24252702 -0.0305224 0 0 Z " fill="#0D1761" transform="translate(1101.1640625,563.90234375)"/>
<path d="M0 0 C0.9029631 0.00565979 1.80592621 0.01131958 2.73625183 0.01715088 C5.60987178 0.03947605 8.48222803 0.08966482 11.35546875 0.140625 C13.30792465 0.16069501 15.26040017 0.1789449 17.21289062 0.1953125 C21.99006753 0.23932818 26.76630415 0.30832874 31.54296875 0.390625 C31.54296875 1.380625 31.54296875 2.370625 31.54296875 3.390625 C29.75681152 3.40464355 29.75681152 3.40464355 27.93457031 3.41894531 C23.51361783 3.45883887 19.09336172 3.52459573 14.67285156 3.59814453 C12.76018219 3.62635786 10.84739615 3.64757061 8.93457031 3.66162109 C6.18363702 3.68304581 3.434107 3.7296924 0.68359375 3.78125 C-0.17071228 3.78247864 -1.02501831 3.78370728 -1.9052124 3.78497314 C-2.70574036 3.80469177 -3.50626831 3.8244104 -4.33105469 3.84472656 C-5.38362457 3.85805023 -5.38362457 3.85805023 -6.4574585 3.87164307 C-9.12614396 4.3840201 -9.12614396 4.3840201 -12.45703125 8.390625 C-12.78703125 14.990625 -13.11703125 21.590625 -13.45703125 28.390625 C0.07296875 28.390625 13.60296875 28.390625 27.54296875 28.390625 C27.54296875 29.050625 27.54296875 29.710625 27.54296875 30.390625 C14.01296875 30.390625 0.48296875 30.390625 -13.45703125 30.390625 C-14.76991666 48.97229069 -14.76991666 48.97229069 -8.45703125 54.390625 C-6.49961045 54.99357278 -6.49961045 54.99357278 -4.42285156 54.93652344 C-3.64234436 54.95624207 -2.86183716 54.97596069 -2.05767822 54.99627686 C-0.80902985 54.99811981 -0.80902985 54.99811981 0.46484375 55 C1.32482971 55.01653625 2.18481567 55.03307251 3.07086182 55.05010986 C5.81163663 55.09860868 8.55185655 55.11996456 11.29296875 55.140625 C13.15367378 55.16878317 15.01435294 55.19871039 16.875 55.23046875 C21.4309439 55.30436797 25.98657942 55.35393095 30.54296875 55.390625 C30.54296875 56.380625 30.54296875 57.370625 30.54296875 58.390625 C25.08035237 58.46491262 19.61803159 58.51929214 14.1550293 58.55541992 C12.2975553 58.57048446 10.44011674 58.59094009 8.58276367 58.61694336 C5.90925336 58.65342959 3.23621431 58.6703747 0.5625 58.68359375 C-0.26477097 58.69907761 -1.09204193 58.71456146 -1.94438171 58.73051453 C-6.55430829 58.73185299 -9.88136422 58.62183762 -13.45703125 55.390625 C-16.53448273 50.02156151 -16.89041702 45.45077066 -16.8203125 39.3515625 C-16.820811 38.50767975 -16.82130951 37.663797 -16.82182312 36.79434204 C-16.81949487 35.0210737 -16.8098406 33.24780128 -16.79321289 31.47460938 C-16.76954 28.76662591 -16.7726715 26.0596238 -16.77929688 23.3515625 C-16.77372174 21.62238999 -16.7666129 19.8932216 -16.7578125 18.1640625 C-16.75872391 17.35875092 -16.75963531 16.55343933 -16.76057434 15.72372437 C-16.69073785 10.17140999 -16.24207247 6.39871602 -12.4230957 2.10253906 C-8.23451117 -0.31497306 -4.75152265 -0.11262201 0 0 Z " fill="#030D59" transform="translate(657.45703125,563.609375)"/>
<path d="M0 0 C0.99 0 1.98 0 3 0 C3.00586624 0.63004944 3.01173248 1.26009888 3.01777649 1.90924072 C3.08167861 8.46306556 3.1660902 15.0163979 3.26245117 21.56982422 C3.29571877 24.01604726 3.32374491 26.4623474 3.34643555 28.90869141 C3.37994708 32.42383705 3.43226276 35.93827495 3.48828125 39.453125 C3.49467117 40.5480426 3.5010611 41.64296021 3.50764465 42.77105713 C3.52743881 43.79181335 3.54723297 44.81256958 3.56762695 45.86425781 C3.57873001 46.76138489 3.58983307 47.65851196 3.60127258 48.58282471 C4.08466612 51.51326505 4.91859664 52.89641259 7 55 C9.774157 55.42617761 12.17008089 55.60482286 14.94921875 55.609375 C15.72183548 55.62591125 16.49445221 55.64244751 17.29048157 55.65948486 C19.75623462 55.70803858 22.22137072 55.72935088 24.6875 55.75 C26.36005721 55.77815372 28.03258558 55.80808031 29.70507812 55.83984375 C33.80333462 55.91379881 37.90124716 55.96332778 42 56 C42 56.99 42 57.98 42 59 C36.82227254 59.12385084 31.64541212 59.21445571 26.46655273 59.2746582 C24.70598324 59.29976061 22.94551753 59.33385028 21.18530273 59.37719727 C18.65061821 59.43804115 16.11731425 59.46625113 13.58203125 59.48828125 C12.40674614 59.52699089 12.40674614 59.52699089 11.2077179 59.56648254 C7.03511122 59.56861089 5.45227963 59.34683064 2.02612305 56.71948242 C-0.8652547 52.83864657 -1.12498346 49.82402067 -1.12939453 45.0637207 C-1.13254669 44.08623367 -1.13569885 43.10874664 -1.13894653 42.10163879 C-1.1369223 41.0536058 -1.13489807 40.00557281 -1.1328125 38.92578125 C-1.13376923 37.84620651 -1.13472595 36.76663177 -1.13571167 35.65434265 C-1.13639162 33.37559959 -1.1345502 31.09685457 -1.13037109 28.81811523 C-1.12500467 25.3155487 -1.13033035 21.8131095 -1.13671875 18.31054688 C-1.13605824 16.09895805 -1.13477765 13.8873693 -1.1328125 11.67578125 C-1.13483673 10.62167557 -1.13686096 9.56756989 -1.13894653 8.48152161 C-1.13579437 7.51349106 -1.13264221 6.54546051 -1.12939453 5.5480957 C-1.12859894 4.6919014 -1.12780334 3.83570709 -1.12698364 2.9535675 C-1 1 -1 1 0 0 Z " fill="#141E66" transform="translate(1034,563)"/>
<path d="M0 0 C0.33 1.32 0.66 2.64 1 4 C0.34 4 -0.32 4 -1 4 C-1 104.65 -1 205.3 -1 309 C-0.01 309.33 0.98 309.66 2 310 C3.05771739 311.63064764 4.05273046 313.30280873 5 315 C5.98244845 316.34631825 6.97676564 317.68441297 8 319 C5.83125748 318.49396008 4.00032373 318.00016187 2 317 C1.375 313.9375 1.375 313.9375 1 311 C0.01 310.67 -0.98 310.34 -2 310 C-2 208.69 -2 107.38 -2 3 C-1.34 3 -0.68 3 0 3 C0 2.01 0 1.02 0 0 Z " fill="#B3A1D8" transform="translate(268,516)"/>
<path d="M0 0 C1.85253906 0.1953125 1.85253906 0.1953125 4 1 C5.28027344 3.1171875 5.28027344 3.1171875 6.359375 5.875 C6.75253906 6.85984375 7.14570312 7.8446875 7.55078125 8.859375 C7.94652344 9.89578125 8.34226562 10.9321875 8.75 12 C9.16121094 13.03640625 9.57242188 14.0728125 9.99609375 15.140625 C13 22.76515781 13 22.76515781 13 24 C5.41 24 -2.18 24 -10 24 C-3.71428571 6.85714286 -3.71428571 6.85714286 0 0 Z " fill="#F8F9FB" transform="translate(761,498)"/>
<path d="M0 0 C0.33 0 0.66 0 1 0 C0.99887207 0.92748047 0.99774414 1.85496094 0.99658203 2.81054688 C1.00656741 6.28545889 1.04332166 9.75802684 1.09765625 13.23242188 C1.11571162 14.72972757 1.12340387 16.22719843 1.12011719 17.72460938 C1.00560487 29.0564897 1.00560487 29.0564897 6.42529297 38.73242188 C8.09093153 40.22394137 8.09093153 40.22394137 11 41 C11 41.66 11 42.32 11 43 C15.14524002 42.98047046 19.28847357 42.92843022 23.43286133 42.84741211 C24.83997171 42.82434473 26.247252 42.80986296 27.65454102 42.80444336 C38.83236074 42.8155742 38.83236074 42.8155742 48 37 C48.804375 36.236875 49.60875 35.47375 50.4375 34.6875 C50.953125 34.130625 51.46875 33.57375 52 33 C52.8125 34.625 52.8125 34.625 53 37 C49.84550637 41.83031837 46.70369799 44.56619747 41 46 C36.69382394 46.41961761 32.41941604 46.51563369 28.09399414 46.50097656 C26.06968093 46.50000345 24.04915898 46.54171287 22.02539062 46.5859375 C14.42257304 46.60105996 8.76779941 46.26960984 3 41 C-2.86067226 34.6885068 -2.18629841 28.84050829 -2.18530273 20.60327148 C-2.18748849 18.57319146 -2.20565597 16.54365577 -2.22460938 14.51367188 C-2.22654297 13.23169922 -2.22847656 11.94972656 -2.23046875 10.62890625 C-2.23457764 9.45400635 -2.23868652 8.27910645 -2.24291992 7.06860352 C-2.01025249 4.12951112 -1.538101 2.47460143 0 0 Z " fill="#0B1560" transform="translate(832,576)"/>
<path d="M0 0 C17.49 0 34.98 0 53 0 C53 0.66 53 1.32 53 2 C44.75 2 36.5 2 28 2 C28 20.48 28 38.96 28 58 C27.01 58 26.02 58 25 58 C25 39.52 25 21.04 25 2 C16.75 2 8.5 2 0 2 C0 1.34 0 0.68 0 0 Z " fill="#000A57" transform="translate(698,564)"/>
<path d="M0 0 C0.66 0.33 1.32 0.66 2 1 C1.67 1.66 1.34 2.32 1 3 C0.76404461 7.49459263 0.77156131 11.99310867 0.75976562 16.49316406 C0.75009694 18.72759755 0.71909298 20.96109642 0.6875 23.1953125 C0.68096591 24.62499456 0.67571704 26.05468318 0.671875 27.484375 C0.6625293 28.78084961 0.65318359 30.07732422 0.64355469 31.41308594 C1.18296483 36.84117763 2.59666074 39.81033078 6.76757812 43.34619141 C10.40782209 45.2086546 12.65322531 45.4901077 16.71875 45.4609375 C18.61173828 45.45513672 18.61173828 45.45513672 20.54296875 45.44921875 C21.84878906 45.42472656 23.15460937 45.40023437 24.5 45.375 C25.80582031 45.37371094 27.11164062 45.37242187 28.45703125 45.37109375 C34.43683687 45.31612107 39.35960887 45.14023168 45 43 C44.1875 45.4375 44.1875 45.4375 43 48 C37.95535639 49.68154787 32.67897851 49.26459107 27.39575195 49.29516602 C26.01576453 49.30664839 24.6358202 49.32704102 23.25610352 49.35668945 C7.19872677 49.70145021 7.19872677 49.70145021 0.43286133 43.58276367 C-4.59885468 37.42392925 -3.6796699 29.07299709 -3.54199219 21.55273438 C-3.49973831 19.10987071 -3.5009634 16.66973389 -3.5078125 14.2265625 C-3.49733194 12.67445993 -3.48439997 11.12237155 -3.46875 9.5703125 C-3.46854858 8.84014923 -3.46834717 8.10998596 -3.46813965 7.35769653 C-3.41992188 5.31298828 -3.41992188 5.31298828 -3 2 C-2.01 1.34 -1.02 0.68 0 0 Z " fill="#0A145E" transform="translate(966,573)"/>
<path d="M0 0 C5.08538407 5.50916608 5.20731214 9.1356042 5.25 16.3125 C5.270625 17.16779297 5.29125 18.02308594 5.3125 18.90429688 C5.34268924 23.77608537 5.17563918 27.04775172 2 31 C-1.4137931 34 -1.4137931 34 -4 34 C-4 32.68 -4 31.36 -4 30 C-3.34902344 29.45472656 -2.69804688 28.90945313 -2.02734375 28.34765625 C1.11684676 24.70669575 0.54563078 21.08712358 0.4375 16.4375 C0.44458984 15.57447266 0.45167969 14.71144531 0.45898438 13.82226562 C0.60571695 9.24266982 0.60571695 9.24266982 -1.33959961 5.29321289 C-5.08421442 2.37669699 -9.43111999 2.7842588 -13.94921875 2.68359375 C-15.10814384 2.6524221 -15.10814384 2.6524221 -16.29048157 2.62062073 C-18.7560648 2.55528962 -21.22175361 2.49631685 -23.6875 2.4375 C-25.36003691 2.39429913 -27.03256319 2.35068434 -28.70507812 2.30664062 C-32.80327882 2.19884676 -36.90156084 2.09965165 -41 2 C-41 11.57 -41 21.14 -41 31 C-41.33 31 -41.66 31 -42 31 C-42 21.1 -42 11.2 -42 1 C-38.93548277 -0.53225861 -35.69228471 -0.26116648 -32.32421875 -0.3515625 C-31.18095879 -0.38629166 -31.18095879 -0.38629166 -30.01460266 -0.42172241 C-28.39985827 -0.46937727 -26.78504086 -0.51460949 -25.17016602 -0.55761719 C-22.70755112 -0.62445579 -20.24545719 -0.7023395 -17.78320312 -0.78125 C-16.21356076 -0.82619282 -14.6438996 -0.87048465 -13.07421875 -0.9140625 C-12.34071701 -0.93796051 -11.60721527 -0.96185852 -10.85148621 -0.98648071 C-7.10174121 -1.07763726 -3.60374474 -1.10966834 0 0 Z " fill="#0E1962" transform="translate(945,565)"/>
<path d="M0 0 C0.99 0 1.98 0 3 0 C3 19.14 3 38.28 3 58 C2.01 58 1.02 58 0 58 C0 41.5 0 25 0 8 C-1.65 8.66 -3.3 9.32 -5 10 C-5.33 9.34 -5.66 8.68 -6 8 C-5.07456291 6.65826597 -4.13422595 5.32679841 -3.1875 4 C-2.66542969 3.2575 -2.14335938 2.515 -1.60546875 1.75 C-0.81076172 0.88375 -0.81076172 0.88375 0 0 Z " fill="#242F73" transform="translate(624,564)"/>
<path d="M0 0 C2.625 -0.1875 2.625 -0.1875 5 0 C4.67 0.66 4.34 1.32 4 2 C2.68 2 1.36 2 0 2 C0 30.05 0 58.1 0 87 C-0.99 87 -1.98 87 -3 87 C-2.91570105 76.09945241 -2.82085859 65.19905282 -2.71247292 54.29871655 C-2.66248067 49.23750244 -2.6161509 44.17630951 -2.578125 39.11499023 C-2.54130918 34.23252495 -2.49495936 29.35023555 -2.44193649 24.4679203 C-2.42337283 22.60319408 -2.40827219 20.73843013 -2.39665604 18.87364769 C-2.37982728 16.2660856 -2.35080068 13.65892808 -2.31884766 11.05151367 C-2.31668747 10.27683746 -2.31452728 9.50216125 -2.31230164 8.70401001 C-2.25317396 4.93864114 -2.14098191 3.21147286 0 0 Z " fill="#FB4693" transform="translate(363,365)"/>
<path d="M0 0 C0.33 0 0.66 0 1 0 C1 43.89 1 87.78 1 133 C1.99 133.33 2.98 133.66 4 134 C5.05771739 135.63064764 6.05273046 137.30280873 7 139 C7.98244845 140.34631825 8.97676564 141.68441297 10 143 C7.83125748 142.49396008 6.00032373 142.00016187 4 141 C3.375 137.9375 3.375 137.9375 3 135 C2.01 134.67 1.02 134.34 0 134 C0 89.78 0 45.56 0 0 Z " fill="#C2CCEC" transform="translate(266,692)"/>
<path d="M0 0 C1.32 0.33 2.64 0.66 4 1 C3.34 1 2.68 1 2 1 C1.773125 1.598125 1.54625 2.19625 1.3125 2.8125 C0 5 0 5 -2.5625 6.5 C-5.11002635 7.71731377 -5.11002635 7.71731377 -5.64149475 9.79493713 C-6.02532458 12.15576422 -6.14613021 14.38901047 -6.17358398 16.78100586 C-6.18707382 17.72556137 -6.20056366 18.67011688 -6.21446228 19.64329529 C-6.22490067 20.65690628 -6.23533905 21.67051727 -6.24609375 22.71484375 C-6.27902498 24.86654064 -6.31223675 27.01823325 -6.34570312 29.16992188 C-6.39314777 32.55815767 -6.43760269 35.94637523 -6.47680664 39.3347168 C-6.51653512 42.60743927 -6.568069 45.87981348 -6.62109375 49.15234375 C-6.6295079 50.16393051 -6.63792206 51.17551727 -6.64659119 52.21775818 C-6.67155418 53.63931969 -6.67155418 53.63931969 -6.69702148 55.08959961 C-6.71248268 56.33392006 -6.71248268 56.33392006 -6.72825623 57.6033783 C-7.03796479 60.33482732 -7.88169266 62.50010172 -9 65 C-9.66 64.67 -10.32 64.34 -11 64 C-10.83923477 63.44213806 -10.67846954 62.88427612 -10.51283264 62.30950928 C-9.96237801 59.83057174 -9.84047002 57.58605251 -9.79467773 55.04785156 C-9.77473251 54.06713684 -9.75478729 53.08642212 -9.73423767 52.07598877 C-9.71752518 51.02481873 -9.70081268 49.97364868 -9.68359375 48.890625 C-9.66281265 47.80867859 -9.64203156 46.72673218 -9.62062073 45.61199951 C-9.55527069 42.15806387 -9.49630771 38.70405263 -9.4375 35.25 C-9.39430096 32.90754429 -9.35068622 30.5650962 -9.30664062 28.22265625 C-9.19960417 22.4818506 -9.09781074 16.74096985 -9 11 C-8.34 11 -7.68 11 -7 11 C-6.9175 10.2575 -6.835 9.515 -6.75 8.75 C-5.85190201 5.45697405 -4.61583926 4.14023212 -2 2 C-1.34 2 -0.68 2 0 2 C0 1.34 0 0.68 0 0 Z " fill="#EC3D89" transform="translate(179,394)"/>
<path d="M0 0 C13.53 0 27.06 0 41 0 C41 0.99 41 1.98 41 3 C27.14 3 13.28 3 -1 3 C-0.67 2.01 -0.34 1.02 0 0 Z " fill="#1C266D" transform="translate(648,564)"/>
<path d="M0 0 C1.59228279 0.00047439 3.18461525 0.01738842 4.77661133 0.04760742 C5.61581619 0.05185226 6.45502106 0.05609711 7.31965637 0.06047058 C9.99964502 0.07726153 12.67888128 0.11491387 15.35864258 0.15307617 C17.17568901 0.1681225 18.99274723 0.181811 20.80981445 0.1940918 C25.26388033 0.22716635 29.7173839 0.27895104 34.17114258 0.34057617 C34.17114258 1.33057617 34.17114258 2.32057617 34.17114258 3.34057617 C20.64114258 3.34057617 7.11114258 3.34057617 -6.82885742 3.34057617 C-3.82885742 0.34057617 -3.82885742 0.34057617 0 0 Z " fill="#17226A" transform="translate(1098.828857421875,563.659423828125)"/>
<path d="M0 0 C0.33 0 0.66 0 1 0 C1 12.54 1 25.08 1 38 C1.99 38.33 2.98 38.66 4 39 C5.05771739 40.63064764 6.05273046 42.30280873 7 44 C7.98244845 45.34631825 8.97676564 46.68441297 10 48 C7.83125748 47.49396008 6.00032373 47.00016187 4 46 C3.375 42.9375 3.375 42.9375 3 40 C2.01 39.67 1.02 39.34 0 39 C0 26.13 0 13.26 0 0 Z " fill="#CDD7EF" transform="translate(266,787)"/>
<path d="M0 0 C0.66 0.33 1.32 0.66 2 1 C-0.77437587 5.85515778 -3.93930237 10.14233725 -8 14 C-7.52353853 8.99715458 -6.06711438 5.96920685 -3 2 C-2.01 1.34 -1.02 0.68 0 0 Z " fill="#202A70" transform="translate(838,566)"/>
<path d="M0 0 C0 0.66 0 1.32 0 2 C-0.66 2 -1.32 2 -2 2 C-2.33 2.99 -2.66 3.98 -3 5 C-8.90337678 7.95168839 -14.54077344 8.10947842 -21 8 C-21 7.67 -21 7.34 -21 7 C-15.06 6.505 -15.06 6.505 -9 6 C-9 5.34 -9 4.68 -9 4 C-2.25 0 -2.25 0 0 0 Z " fill="#DBACD7" transform="translate(314,838)"/>
<path d="M0 0 C0.33 0 0.66 0 1 0 C1 1.65 1 3.3 1 5 C0.34 5 -0.32 5 -1 5 C-1.04125 5.763125 -1.0825 6.52625 -1.125 7.3125 C-2 10 -2 10 -5 11.6875 C-5.99 12.120625 -6.98 12.55375 -8 13 C-8.33 13.66 -8.66 14.32 -9 15 C-9.99 14.67 -10.98 14.34 -12 14 C-9.90469426 11.82709034 -7.87892987 9.9114121 -5.4375 8.125 C-2.64171353 5.68764769 -1.45882318 3.37832736 0 0 Z " fill="#C9BAE0" transform="translate(326,824)"/>
<path d="M0 0 C0.763125 0.20625 1.52625 0.4125 2.3125 0.625 C2.3125 1.615 2.3125 2.605 2.3125 3.625 C1.6525 3.625 0.9925 3.625 0.3125 3.625 C0.3125 2.965 0.3125 2.305 0.3125 1.625 C-1.3375 2.285 -2.9875 2.945 -4.6875 3.625 C-4.6875 4.285 -4.6875 4.945 -4.6875 5.625 C-6.3375 5.625 -7.9875 5.625 -9.6875 5.625 C-3.74487705 -0.52254098 -3.74487705 -0.52254098 0 0 Z " fill="#FC1A48" transform="translate(253.6875,489.375)"/>
<path d="M0 0 C0.99 0.33 1.98 0.66 3 1 C2.34 1.66 1.68 2.32 1 3 C0.360625 3.86625 -0.27875 4.7325 -0.9375 5.625 C-1.618125 6.40875 -2.29875 7.1925 -3 8 C-3.99 8 -4.98 8 -6 8 C-4.75237172 4.15314615 -3.6129609 1.97070595 0 0 Z " fill="#2A3478" transform="translate(1092,564)"/>
<path d="M0 0 C0.99 0 1.98 0 3 0 C2.62952882 2.74148672 2.31412056 4.58593199 0.625 6.8125 C-1 8 -1 8 -4 8 C-2.87548273 5.0280615 -1.77706209 2.66559313 0 0 Z " fill="#263074" transform="translate(617,573)"/>
<path d="M0 0 C1.32 0.33 2.64 0.66 4 1 C3.34 1 2.68 1 2 1 C1.773125 1.598125 1.54625 2.19625 1.3125 2.8125 C-0.34703745 5.57839575 -2.20498395 6.46274117 -5 8 C-5.66 8.66 -6.32 9.32 -7 10 C-6.45912682 6.21388773 -4.88277668 4.44599233 -2 2 C-1.34 2 -0.68 2 0 2 C0 1.34 0 0.68 0 0 Z " fill="#EA3E7D" transform="translate(179,394)"/>
<path d="M0 0 C0.33 0.99 0.66 1.98 1 3 C-0.75 5.6875 -0.75 5.6875 -3 8 C-3.99 8 -4.98 8 -6 8 C-4.73058503 4.08597051 -3.48832306 2.20927127 0 0 Z " fill="#242E74" transform="translate(602,598)"/>
<path d="M0 0 C1.6415049 3.2830098 0.51888624 6.42545033 0 10 C0.99 10.33 1.98 10.66 3 11 C1.68 11 0.36 11 -1 11 C-2.49821059 7.62902617 -3 5.79557881 -3 2 C-2.01 1.34 -1.02 0.68 0 0 Z " fill="#E86AB0" transform="translate(142,479)"/>
<path d="M0 0 C2.77300866 1.38650433 3.45496074 3.34253248 5 6 C5.98244845 7.34631825 6.97676564 8.68441297 8 10 C5.83125748 9.49396008 4.00032373 9.00016187 2 8 C1.3671875 6.15234375 1.3671875 6.15234375 0.875 3.9375 C0.70742188 3.20402344 0.53984375 2.47054687 0.3671875 1.71484375 C0.24601562 1.14894531 0.12484375 0.58304688 0 0 Z " fill="#C9A1D2" transform="translate(268,825)"/>
<path d="M0 0 C0.99 0 1.98 0 3 0 C3 0.99 3 1.98 3 3 C0 5 0 5 -3 5 C-3.33 6.32 -3.66 7.64 -4 9 C-4 7.35 -4 5.7 -4 4 C-3.01 4 -2.02 4 -1 4 C-0.67 2.68 -0.34 1.36 0 0 Z " fill="#FC3969" transform="translate(334,477)"/>
<path d="M0 0 C0.33 0 0.66 0 1 0 C1.23053497 2.84326464 1.35903101 4.46145349 -0.25 6.875 C-2 8 -2 8 -4.1875 7.6875 C-4.785625 7.460625 -5.38375 7.23375 -6 7 C-5.67 6.34 -5.34 5.68 -5 5 C-2.9375 4.375 -2.9375 4.375 -1 4 C-0.67 2.68 -0.34 1.36 0 0 Z " fill="#F4306A" transform="translate(209,372)"/>
<path d="M0 0 C5.75 2.625 5.75 2.625 8 6 C4 6 4 6 1.75 4.125 C0 2 0 2 0 0 Z " fill="#CAB6DD" transform="translate(276,835)"/>
<path d="M0 0 C2 1 2 1 3 3 C-0.465 4.485 -0.465 4.485 -4 6 C-2.84826645 3.53199953 -1.95216435 1.95216435 0 0 Z " fill="#1B256D" transform="translate(646,565)"/>
</svg>
